<mxfile host="65bd71144e">
    <diagram id="nTbimIO7lVtvEImSwjbR" name="Page-1">
        <mxGraphModel dx="803" dy="893" grid="1" gridSize="10" guides="1" tooltips="1" connect="1" arrows="1" fold="1" page="1" pageScale="1" pageWidth="850" pageHeight="1100" math="0" shadow="0">
            <root>
                <mxCell id="0"/>
                <mxCell id="1" parent="0"/>
                <mxCell id="2" value="" style="ellipse;whiteSpace=wrap;html=1;fillColor=none;" parent="1" vertex="1">
                    <mxGeometry x="370" y="140" width="320" height="310" as="geometry"/>
                </mxCell>
                <mxCell id="6" value="" style="shape=image;imageAspect=0;aspect=fixed;verticalLabelPosition=bottom;verticalAlign=top;image=data:image/svg+xml,PHN2ZyB4bWxuczp4bGluaz0iaHR0cDovL3d3dy53My5vcmcvMTk5OS94bGluayIgeG1sbnM9Imh0dHA6Ly93d3cudzMub3JnLzIwMDAvc3ZnIiB2aWV3Qm94PSIwIDAgNzM1Ljc5NTQxIDQ0Ny4wNjU2NCIgaGVpZ2h0PSI0NDcuMDY1NjQiIHdpZHRoPSI3MzUuNzk1NDEiPjxnPjxwYXRoIGZpbGw9IiMzZjNkNTYiIGQ9Im01ODIuMDA1MTMsMzA0LjM5Nzc3aC0xOS4yMzkybC0uMDcwNTYtLjA3NDcxYy0zLjQyMDk2LTMuNjMzMjctNC45NTg5OC04LjczNjExLTQuMTE0MjYtMTMuNjUwMDUuMjY4NjgtMS41ODY0OS43Nzk3OS0zLjEyNjU2LDEuNTE5NDEtNC41NzcwOWw1Ljg1MzE1LTExLjQ0NjQ0LTIuMzI0NTItNDEuMDA3NzJjLS4wNDI5MS0uNzYwMDYuMjIxMzEtMS40ODMwMi43NDM4NC0yLjAzNTY0LjUyMjQ2LS41NTMxMiwxLjIzMDM1LS44NTc1MSwxLjk5MjQ5LS44NTc1MWgzLjU5NzExYzEuNDc5NTUsMCwyLjY4MzY1LDEuMTU2MzQsMi43NDE0NiwyLjYzMjg0bDEuNTY1NjEsNDAuNTMyNTYsOC4xMDQzMSwxMi42NTYxM2MuNjkyMzIsMS4wODE2MywxLjI0ODksMi4yMzE5MywxLjY1NDY2LDMuNDE5ODMsMS41ODg1Niw0LjYwODY0LDEuMDA2NzEsOS42MTU4OC0xLjU5NjY4LDEzLjczNjM2bC0uMDAwNDkuMDAwOTItLjQyNjQ1LjY3MDUuMDAwMTIuMDAwMDNaIi8+PHBhdGggZmlsbD0iIzZjNjNmZiIgZD0ibTU4MC4zNDk5OCwzMDEuNTYwNzloMGMtLjE4MjU2LjI4NzIzLS40OTkzMy40NjEyMS0uODM5NjYuNDYxMjFoLTE0LjY0NDc4Yy0uMjgyNDcsMC0uNTU2MzQtLjExNjQ5LS43NDI4Ni0uMzI4NjEtMi40NzIwNS0yLjgxMTM3LTMuNTYxMjgtNi40OTYzNy0zLjEyOTQ2LTEwLjA4NzUyLjA0NzMtLjM5MzM3LjMzODItLjcxNzIyLjcyMTM3LS44MTgxNSwzLjA1NzQzLS44MDU0NSw2Ljc0Njg5LTEuMjczNzcsMTAuNzIwMDktMS4yNzM3NywzLjEwNzI0LDAsNi4wNDE3NS4yODc5LDguNjM2NDcuNzk3MzkuMzU1MTYuMDY5NzYuNjQ4ODYuMzI4ODYuNzUxMTYuNjc2MDksMS4wMzYxMywzLjUxNjg4LjU0NjUxLDcuMzc4MDgtMS40NzIzNSwxMC41NzMzNmgwWiIvPjwvZz48cGF0aCBmaWxsPSIjM2YzZDU2IiBkPSJtNzM0Ljc5NTQxLDMxMy4wNjU2NEgxYy0uNTUyMjUsMC0xLS40NDcyNy0xLTFzLjQ0Nzc1LTEsMS0xaDczMy43OTU0MWMuNTUyMjUsMCwxLC40NDcyNywxLDFzLS40NDc3NSwxLTEsMVoiLz48cGF0aCBmaWxsPSIjYTA2MTZhIiBkPSJtMjE1LjQ1MTE0LDEyNy4zMjc0N2MtMTAuNzUzMDgtMy4yMTg4MS0xNy44MDg1My0xMS4zNzYyNC0xNS43NTg5NC0xOC4yMTkyNCwyLjA0OTYxLTYuODQzLDEyLjQyNjg2LTkuNzc5MjcsMjMuMTgzMzYtNi41NTc4OCw0LjMxNDQ0LDEuMjI3ODgsOC4yNzIwNiwzLjQ3MTEyLDExLjU0MTc5LDYuNTQyMDhsNDUuMzg5MDcsMTQuMjEzNjItNy4xMjQwNSwyMS4xNTc1OS00My45ODkyMy0xNi4yNTgzOGMtNC40MjA3OC43NjkxNS04Ljk2MTUuNDY4MTUtMTMuMjQyMDMtLjg3Nzc5aC4wMDAwM3MwLS4wMDAwMiwwLS4wMDAwMloiIGlkPSJ1dWlkLWIwNjczNDg1LTgwZTEtNGQ1OC05MzA2LWY5OTdkZDMzNmYzOS0yOSIvPjxwYXRoIGZpbGw9IiNlNmU2ZTYiIGQ9Im00MTYuNzk1NDEsMTMyLjg4NzI4bC41NDU2NSwzNy4zNzMyMXMtNDYuOTc5OTUtLjYyNDU2LTYzLjQxNjE3LjY3NDc5Yy0xNi40MzYyMiwxLjI5OTMzLTExOC44ODk2LTM2LjIwMjQ3LTExOC44ODk2LTM2LjIwMjQ3bDE3LjAxNTM3LTI0LjEyODk1LDExMy4wMjI4OSwyNy4yODE4NSw1MS43MjE4Ni00Ljk5ODQzWiIvPjxyZWN0IGZpbGw9IiM2YzYzZmYiIGhlaWdodD0iOTQuOTk5OTgiIHdpZHRoPSI3IiB5PSI4Mi4wNjU2NiIgeD0iMjExLjc5NTQxIi8+PHBhdGggZmlsbD0iIzNmM2Q1NiIgZD0ibTI0NC4wNjk4MiwzMTIuMDY1NjRoLTQwLjQ5MDIzbC0uMTQ4NDQtLjE1NzIzYy03LjE5OTcxLTcuNjQ2NDgtMTAuNDM2NTItMTguMzg1NzQtOC42NTg2OS0yOC43Mjc1NC41NjU0My0zLjMzODg3LDEuNjQxMTEtNi41ODAwOCwzLjE5Nzc1LTkuNjMyODFsMTIuMzE4MzYtMjQuMDg5ODQtNC44OTIwOS04Ni4zMDM3MWMtLjA5MDMzLTEuNTk5NjEuNDY1ODItMy4xMjEwOSwxLjU2NTQzLTQuMjg0MTgsMS4wOTk2MS0xLjE2NDA2LDIuNTg5MzYtMS44MDQ2OSw0LjE5MzM2LTEuODA0NjloNy41NzAzMWMzLjExMzc3LDAsNS42NDc5NSwyLjQzMzU5LDUuNzY5NTMsNS41NDEwMmwzLjI5NDkyLDg1LjMwMzcxLDE3LjA1NjE1LDI2LjYzNTc0YzEuNDU3MDMsMi4yNzYzNywyLjYyODQyLDQuNjk3MjcsMy40ODI0Miw3LjE5NzI3LDMuMzQzMjYsOS42OTkyMiwyLjExODY1LDIwLjIzNzMtMy4zNjAzNSwyOC45MDkxOGwtLjAwMDk4LjAwMTk1LS44OTc0NiwxLjQxMTEzWiIvPjxwYXRoIGZpbGw9IiM2YzYzZmYiIGQ9Im0yNDAuNTg2NCwzMDYuMDk1aDBjLS4zODQyNS42MDQ0OS0xLjA1MDgzLjk3MDY0LTEuNzY3MTEuOTcwNjRoLTMwLjgyMDk4Yy0uNTk0NDUsMC0xLjE3MDgyLS4yNDUxOC0xLjU2MzM1LS42OTE1OS01LjIwMjY0LTUuOTE2NzItNy40OTQ5Ni0xMy42NzIwOS02LjU4NjExLTIxLjIyOTkyLjA5OTU2LS44Mjc4OC43MTE4MS0xLjUwOTQzLDEuNTE4MTMtMS43MjE4Niw2LjQzNDU0LTEuNjk1MTMsMTQuMTk5MzMtMi42ODA3MywyMi41NjEyLTIuNjgwNzMsNi41Mzk0LDAsMTIuNzE1MzIuNjA1OTMsMTguMTc2MDQsMS42NzgxOS43NDc1MS4xNDY3OSwxLjM2NTU3LjY5MjE0LDEuNTgwODYsMS40MjI4OCwyLjE4MDYzLDcuNDAxNTUsMS4xNTAxMiwxNS41Mjc2OC0zLjA5ODY4LDIyLjI1MjQxdi0uMDAwMDNaIi8+PHBvbHlnb24gZmlsbD0iI2EwNjE2YSIgcG9pbnRzPSIzODYuNzk1NDEgODAuMDY1NjYgMzkyLjc5NTQxIDEyMS4wNjU2NiAzNDQuNzk1NDEgMTI2LjA2NTY2IDM0Ny43OTU0MSA3My4wNjU2NiAzODYuNzk1NDEgODAuMDY1NjYiLz48Y2lyY2xlIGZpbGw9IiNhMDYxNmEiIHI9IjMyLjM3MjUiIGN5PSI1OS45MDU0OCIgY3g9IjM0MS4xNjc5MSIvPjxwYXRoIGZpbGw9IiNhMDYxNmEiIGQ9Im0yNDAuMzEyLDIwNi43ODQxNmMtOS4xNTYxNC04LjIyMDExLTIwLjk0MTQ4LTEwLjA2ODAyLTI2LjMyMjU2LTQuMTI4MTEtNS4zODEwNyw1LjkzOTktMi4zMTk5MiwxNy40MTY1Niw2Ljg0MDYyLDI1LjYzODM1LDMuNjEyOTIsMy4zMzU0Miw3Ljk5NDQ5LDUuNzM5OTcsMTIuNzc4MTUsNy4wMTI0NWwzOS4yNDc0NCwzNC4zMjk1MywxNi4xOTI1Ny0xOS4xMDUwNy00MC40MTAxNi0zMS44MTQ0OGMtMS43NjQ0Ny00LjYwNjYxLTQuNjE5NDgtOC42OTgzMy04LjMyNjA3LTExLjkzMjY1di0uMDAwMDJaIiBpZD0idXVpZC04NGZhZmVjYi1hOGI5LTQzMTUtODA2MS03M2JjMzkyZmNjZTItMzAiLz48cGF0aCBmaWxsPSIjZTZlNmU2IiBkPSJtMzQ3Ljc5NTQxLDExNi4wNjU2Nmw0OS03LDI5LDIxLjk5OTk4LDMsMTIxLDI4LDE5My0xODYsMnMxNC0xMjUsMjEtMTMyLDEyLTM5LDEyLTM5bDE0LTEzOHMzMC0yMS45OTk5OSwzMC0yMS45OTk5OFoiLz48cGF0aCBmaWxsPSIjZTZlNmU2IiBkPSJtMzI5LjI5NTQxLDEzNy41NjU2NHMtMjYtMi0zMiwxNi0xMyw3Ny0xMyw3N2wtMTYsMi0xNC0xNS0xNSwzNnM1Myw1OCw3MywzMiwxNy0xNDgsMTctMTQ4WiIvPjxwYXRoIGZpbGw9IiMyZjJlNDEiIGQ9Im0zOTYuMjk1NDcsNzYuNjE2OHMwLTMyLjA1MTE1LDMtNDIuMDUxMTUtMTQtMjEtMTktMzEtMzYsNC00OSw2LTEyLDEwLTIwLDIzLDgsMzMsMjAsMzUsOCwxMSwxNi4yMzIyNCwyMWM4LjIzMjMsMTAsMzQuNTI2NzMsMCwzNC41MjY3MywwbDMuMjQwOTcsNXMtNywyOCw2LDUybDM0LjAwMDA2LDljLTEwLTMwLDEtMzAsNy4yNzE2MS00NS41LDYuMjcxNjctMTUuNS0zNi4yNzE2MS0zMi40NDg4NS0zNi4yNzE2MS0zMi40NDg4NFoiLz48cGF0aCBmaWxsPSIjZjJmMmYyIiBkPSJtNjM0LjExMTI3LDMwMy4zODg5MmgtMTcuODIzMTh2LTI5Ljg4aDE3LjgyMzE4YzIuMDI2NjEtLjAwNTk4LDMuNjY0NjEtMS42NTM2OSwzLjY1ODYzLTMuNjgwMy0uMDA1OTItMi4wMTgxMy0xLjY0MDUtMy42NTI2NS0zLjY1ODYzLTMuNjU4NjNoLTEyNC4yMzc5OGMtMi4wMjY1OC4wMDU5OC0zLjY2NDYxLDEuNjUzNjktMy42NTg2MywzLjY4MDMuMDA1OTUsMi4wMTgxMywxLjY0MDUsMy42NTI2NSwzLjY1ODYzLDMuNjU4NjNoMTUuMjAyMTV2MjkuODhoLTE1LjIwMjEyYy0yLjAyNjU4LjAwNTk4LTMuNjY0NjEsMS42NTM2OS0zLjY1ODYzLDMuNjgwMy4wMDU5NSwyLjAxODEzLDEuNjQwNSwzLjY1MjY1LDMuNjU4NjMsMy42NTg2M2gxMjQuMjM4MDFjMi4wMjY2MS0uMDA1OTgsMy42NjQ2MS0xLjY1MzY5LDMuNjU4NjMtMy42ODAzLS4wMDU5Mi0yLjAxODEzLTEuNjQwNS0zLjY1MjY1LTMuNjU4NjMtMy42NTg2M2gtLjAwMDA2Wm0tMTAxLjY5NjksMGw4LjM4MTA0LTIyLjMyMzI3LDY4LjE1Mzc1LTcuNTU2NzZ2MjkuODhoLTc2LjUzNDc5di4wMDAwM1oiLz48L3N2Zz4=;" parent="1" vertex="1">
                    <mxGeometry x="340" y="140" width="141.52" height="86" as="geometry"/>
                </mxCell>
                <mxCell id="7" value="" style="shape=image;imageAspect=0;aspect=fixed;verticalLabelPosition=bottom;verticalAlign=top;image=data:image/svg+xml,PHN2ZyB4bWxuczp4bGluaz0iaHR0cDovL3d3dy53My5vcmcvMTk5OS94bGluayIgeG1sbnM9Imh0dHA6Ly93d3cudzMub3JnLzIwMDAvc3ZnIiB2aWV3Qm94PSIwIDAgNDMzLjUyNTcxIDYwOC44OTI0NCIgaGVpZ2h0PSI2MDguODkyNDQiIHdpZHRoPSI0MzMuNTI1NzEiPjxjaXJjbGUgZmlsbD0iI2ZmNjg4NCIgcj0iMzEuOTM3MjMiIGN5PSIxNDMuNzM4NzgiIGN4PSIzMTMuODg4ODgiLz48cGF0aCBmaWxsPSIjZjJmMmYyIiBkPSJtMTgxLjc0ODAxLDU3Ny43NDU0NWMtLjExOTk2LDEuNTMyNTMtLjExNDY5LDIuOTU2MzYuMDQ0NDksNC4zNDgxNGw3Ni43NTE1Ni0zLjA2OTk1Yy42NDIxOC0xLjQyMzgzLDEuMTc4OC0yLjg5NTI2LDEuNjM1ODktNC40MTUzNCw4LjMwNTQ4LTI3LjMzNzg5LTguOTIyNjUtNzEuNTk3ODcsNy45ODUwNS0xMzguOTIxMDIsMTIuNTUzMzEtNDkuOTU2NTcsMzguMTI2MTktODkuNjYyNjMsNTAuMDQ3Ny0xMDguMTYwNDMsMTQuNjUxMzctMjIuNzQ5ODgsMzEuNDM5MDMtNDMuODc2MzcsNTAuNTMwNjEtNzcuMzE2MTIsNC4xMzgxNS03LjIzNDA5LDguMzgxODctMTUuMDY4MDEsMTIuNzUyODEtMjMuNjA2MDIsMS40NjUyMS0yLjg1NTAzLDE4LjM0MjkzLTM1Ljk3MzEzLDE2LjY0ODEtMzYuOTE1MTgtLjc5NDEtLjQzNDI4LTUuMzQwNzYsNi4yOTgyNi02Ljg4MTUsOC41NjA4NC0xMy41OTU1OCwyMC4wMTQ3Mi0yMS42MDUzOCwyOC44NTM3OS0zMy4wMTUwMSw0My4zMTc4Ni02LjkyNDk2LDguNzY5NzQtMTUuMDg4NzUsMTkuNTgyNjctMjYuNDg5MDEsMzYuMjIxMzQtMjkuMjM2NTQsNDIuNjIzMDgtNDMuODQyMzIsNjMuOTIxMTctNDguNjAwMDEsNzkuNjIwOTQtMS4yNTYzNSw0LjE5Mjk2LTcuOTM1MjEsMjYuODgyOTctMjEuMDk0NTEsNTUuMjE3NjgtNi43MjMzNywxNC40NTc4OS0xMC4wODQ5OCwyMS42ODY4LTEyLjA5ODMsMjEuMTk3NzgtNS43MDA2NC0xLjQwMzIzLS40NDY1Ni02MC4zNjMxLDIxLjA5NDY0LTExOS45NDg1NSwzLjY4NTM5LTEwLjE0MTgyLDYuNDgwMzgtMTYuNjQ5MTEsMTEuNzg4MDktMjguOTUzMDksOC42MjE4OS0yMC4wNzQ4LDU2LjY0Mjc5LTEzMS42NDk3Myw5Mi41Mzk2NC0xOTguNzIyNTgsNC41MDQyNy04LjQzOTgzLDguODMwNjYtMTYuMTQ3NjQsMTIuODMyNDYtMjIuOTEwMjIuNzc3NjItMS4yNzM4OSwxLjUzMDQtMi41MjEwMiwyLjI1OTM3LTMuNzE1Miw1LjA1NjUyLTguMjI4OTcsOS41NTk2Ni0xNC43NTI3NSwxMy4zNTE1OS0xOC45OTUyOSwyLjAwNzA4LTIuMjU1MzEsNy4wODYyNy04LjYyMDg2LDE3LjI2ODQ5LTIxLjQwNDU4LDQuMDQzMTUtNS4wODEzMyw2Ljk5OTUxLTguODUwMzMsOC45ODY5MS0xMS41OTY4MS4yOTQ2OC0uNDAwMDguNTYzNTEtLjc5OTI4Ljc4MjYyLTEuMTQ0NjYsMi40MDExNS0zLjQxMDE4LDMuMDYwNzktNS4wNDIwMywyLjQzMjE2LTUuODcxMjItLjkwMTczLTEuMTgwOTUtNC4xNTY3Ny0uMzUxNjItNy42OTk0MywxLjA1ODc4LS4zODI2Ni4xNDQ3NC0uNzkwMDEuMzE2MzgtMS4xNzE2My40ODY5OS0zLjg0NTYxLDEuNjAzNzgtNy43MjUyNSwzLjY0OTIxLTkuMDE3ODIsNC4zNDgyMi0xMS44NjU2LDYuMzAwMzgtMjMuMjYyODIsMTcuMTkwNzgtMzMuNzAyNDUsMzAuMDEwODgtMy44NzU2MSw0LjczNzg2LTcuNTg1NzgsOS43MjgxMS0xMS4xNjE1NiwxNC44NDI1OC0xMS41MDg3NiwxNi41MTM0Ni0yMS40MDk4MiwzNC4zODY4MS0yOC44NDk3LDQ5LjA1NDc3LTkuMTE2MDksMTguMDc0OS0xNC40OTAxMSwzMS4zMTM3OC0xNC40OTAxMSwzMS4zMTM3OC0yNS4wMDUyMiw2MS42NjU5MS01Mi42NjA4LDEzMi4xNjM1Ni01NC4yODczMiwxMzEuNjMzMS0xLjc4MzY5LS41NzU5NiwyOC41MDI0MS04OC4xNjQxOCwzNi40NTIxNS0xMzUuMzk5MjMsMi42NTU0OS0xNS44MjI3MywyLjc5OTE5LTI3LjExNzY2LTEuNjA0NzQtMjkuMTE2MzgtLjE1ODItLjA3MTQzLS4zMTY0MS0uMTQyNjktLjQ5OTQ1LS4xODcyMS0uNjgxNDYtLjIwNTg0LTEuMzAwODEtLjE1NTE1LTEuNjM1ODYtLjExNTgzLDAsMC00LjAyNzU2LS4zNTY3OC04LjIwNTA4LjcxNjY0LTUuMjAyMzMsMS4zNDczNS0xMC41ODk2OSwxNi4xOTE5Mi0xNS41ODYyMSwzNi45MjQzOS0xMy4wMDkyOCw1My40NDQzMS0yMy43MDc2MSwxNDUuODkzNzItMjMuNzA3NjEsMTQ1Ljg5MzcyLTEwLjY5NzMsOTIuNDc1MTMtMjkuNTQwNzYsMTY3LjcyMTE2LTM0Ljc0NDAzLDE2Ny4xMDA3MS0yLjg4ODAzLS4zNTA1Mi4yOTg4My0yMy41OTk4NS01LjA2NjY4LTYxLjkzODk2LTMuNzY3OTMtMjYuODgwODktNi43ODUyMy0yNS45MzE2NC0xOC41MDkxNy03NC4zNDc0Ny0xOC42MDc0MS03Ni44MDMzNC0yNy45MTA1OC0xMTUuMTkyMTctMjcuOTE4ODUtMTE1LjM5ODg1LjAxMjUtMS42MzE3My4wODc4Ni00LjkyMzEzLS41Mzk3OS04LjMxNTgzLS42NjQ5Mi0zLjY3NTk5LTIuMTM4MjgtNy41MDA5Mi01LjM1NDE5LTkuNTczMDctNC44OTEwNy0zLjE3MDMzLTEyLjQ4NDk1LTEuNDE2NjMtMTUuNTEwNTkuNjIwNDEtMi40MTk3MSwxLjY1MDI1LTMuNTcyNjUsNC41NDQ2My0zLjY5MzYsOC42NDAzNC0uNjc4MzEsMjUuNzY0MTMsMzkuMjE2OCw5OC43OTAxNiw1Ni4wMTU2MSwxOTguOTk0ODcsOC4zNjYzOCw0OS45MjIzMywxMi45NTEyLDc3LjE1OSw0LjU0OTU2LDExMy43NDQzNS04LjMxMDY4LDM2LjI3MTAzLTI0LjM4MDc1LDU5LjgwMjUyLTI1LjYxNTM5LDc2LjE4OTk3aC4wMDAxNFoiLz48cGF0aCBmaWxsPSIjZmZiNmI2IiBkPSJtMTIwLjgwMTI1LDM1OC43MzIzOXMtLjU5NjYzLDExOS4wNzgzMS00NS4wMTM4Miw5OS4wNTg2MmMtMjMuMDk4MTctMTAuNDEwOC01Ny4xOTA2NS01NC4zMDUyNC01Ny4xOTA2NS01NC4zMDUyNGwxNC4wODU1LTEzLjQ4NjA1LDM4LjQ1MzMsMzIuMTQzNCw3LjI0MjM4LTYzLjkyNTU3LDQyLjQyMzI4LjUxNDg5cy4wMDAwMi0uMDAwMDYuMDAwMDItLjAwMDA2WiIvPjxwYXRoIGZpbGw9IiNlNmU2ZTYiIGQ9Im0xMzkuNDg1MDIsMjkyLjUxODY3cy0yOS40MjcyLTguMzMwNjMtNDUuMzE2MjksMTQuNTUwMjktMjQsMTA4LTI0LDEwOGw0MiwyMSwyNy4zMTYyOS0xNDMuNTUwMjlaIi8+PHBhdGggZmlsbD0iIzJmMmU0MSIgZD0ibTE2OC44NDgzMywxNTguMTEwNWMtOS4wOTkyMSwyLjk3NzAxLTE5LjgyMDkxLTE2LjQ0MTEzLTI0LjI2NTQ3LTguNTI4MTctNC40NDQ1Niw3LjkxMjk1LTIuNTcwMDEsNDMuMDgyMjYtLjA2OTExLDUxLjg1MjY1LDEuMjQzMDksNC4zNTkzOCwzLjMzMDczLDguNTAxOTgsNC41MzU2NCwxMi44Njk3MSwxLjIwNDkzLDQuMzY3NzIsMS40NDMzNCw5LjIwMi0uODg2NzMsMTMuMDcyNzgtNC4wNTQ5OCw2LjczNjI0LTE0LjAyNTcsOC4xMTQ5OS0xOS43Njc5NCwxMy42NzkyNi02LjY4NzkzLDYuNDgwNjQtNi4xMDAwNywxNi43Nzk0Mi00Ljk0OTI4LDI1LjgyNTEuOTkxOTEsNy43OTY3OCwyLjExNzczLDE1LjY4NDU3LDUuMjgyOTksMjMuMDE3MTIsMy4xNjUyNSw3LjMzMjU1LDguNjI4OTQsMTQuMTYwMTksMTYuMjc4MzQsMTcuNjY2NDcsOS43MzkzNSw0LjQ2NDIzLDIxLjE4MTA5LDIuOTI0NzEsMzEuNjI0ODguNzgxODYsMTAuMDQwODgtMi4wNjAxOCwyMC4wNTk0My00LjYxODg3LDI5LjA1MjI1LTkuMTM4NDlzMTYuOTY2OTMtMTEuMTY2OTYsMjEuMjYxNDctMTkuNzgxNDNjNS4zODY5Ni0xMC44MDU3Niw0LjQ4MDQ4LTIzLjc0NDE3LjA4MTYzLTM1LjE1NTQ2LTQuMzk4ODYtMTEuNDExMjctMTIuMDA2ODctMjEuNTYzMTYtMTkuOTI5NjMtMzEuMjY4NzctMTMuMzQzNTctMTYuMzQ2MjUtMjcuODQ2NDEtMzEuODkxNzItNDMuMzc5MDMtNDYuNDk3NjciLz48cG9seWdvbiBmaWxsPSIjZmZiNmI2IiBwb2ludHM9IjI5OS4xMjM5MiAzNTUuODM1MTQgMzE3Ljc5NDI0IDQyNi40Mjk0NyAzNjMuMDY1OTQgNTYwLjYyNzEgMzM5LjQ5MTU0IDU3NC4wMTM4MiAyODAuMjIwNTEgNDQwLjQ3MjgxIDI2NS4yNDI0OCAzNjkuMjIzNjYgMjk5LjEyMzkyIDM1NS44MzUxNCIvPjxwb2x5Z29uIGZpbGw9IiNlNmU2ZTYiIHBvaW50cz0iMjA5LjEzNzExIDI1NS4yMTc1MSAxNTYuMTM3MTEgMjUzLjIxNzUxIDE1MS4xMzcxMSAyNzIuMjE3NSAxMDguMTY4NzIgMjk3LjA2ODk3IDExMi42MzcxMiA0NTEuNzE3NSAyNDUuNjM3MTEgNDYzLjcxNzUgMjY0Ljc5ODUxIDM1OC40Njc1IDI2OS42MzcxMSAyOTguNzE3NSAyMTMuNjM3MTEgMjc0LjcxNzUgMjA5LjEzNzExIDI1NS4yMTc1MSIvPjxwYXRoIGZpbGw9IiNlNmU2ZTYiIGQ9Im0yMzYuNDkxNTUsMzA5LjAxMzg1czI0LjE0MDQ2LTIzLjc0MDIzLDQyLjQ4NDMtNy4yMDIzM2MxOC4zNDM4NywxNi41Mzc5Myw0MC4zMjU2NSwxMjYuMTA3OTcsNDAuMzI1NjUsMTI2LjEwNzk3bC0zOC44MDk5NywxOS4wOTQzNi00NC0xMzhoLjAwMDAyWiIvPjxwYXRoIGZpbGw9IiM2YzYzZmYiIGQ9Im0yMzguNjM3MTEsMzIzLjcxNzVzLTIyLTEtNDAsNC02OS02LTY5LTZjMTIuMjkwMzEsNDEuODQ2NTksNC4xMTcyMiw4NS41OTUwNi0xNi41LDEzMC41MDAwMy0yNy4yMTk2LDMzLjQwNTUyLDMuMzU0NDMsOTYuNzk2MzYtNDMuNSwxMzAuNTAwMDNoMTk1LjE2MTQxbC03LjE2MTQxLTg2LTExLTMyczYtNiw0LTgtMjctOTktMTItMTMzdi0uMDAwMDZaIi8+PHBvbHlnb24gZmlsbD0iIzNmM2Q1NiIgcG9pbnRzPSIxNDMuNjM3MTEgMjcwLjcxNzUgMTMxLjYzNzExIDMzMS43MTc1IDE0OC42MzcxMSAzMzYuNzE3NSAxNDQuNjM3MTEgMzE0LjcxNzUgMTUwLjYzNzExIDI2Ny43MTc1IDE0My42MzcxMSAyNzAuNzE3NSIvPjxwb2x5Z29uIGZpbGw9IiMzZjNkNTYiIHBvaW50cz0iMjE0LjYzNzExIDI2OS43MTc1IDIyMS40Mjg0NiAzNTEuMjE3NSAyMzAuNjM3MTEgMzUwLjcxNzUgMjI0LjYzNzExIDI3My43MTc1IDIxNC42MzcxMSAyNjkuNzE3NSIvPjxwYXRoIGZpbGw9IiMzZjNkNTYiIGQ9Im0yNTEuNzU5MTUsNDY0LjcxNzVzLTUzLjYyMjA2LDE0LjUtOTguNjIyMDQsOS41bC00MS42NTE1Ny0yNy4yMzYyMS0xLjg0ODQzLDQuNzM2MjFzMzYuMTIyMDUsNDUuMjgzNDUsNjMuMDYxMDMsNDIuNjQxNzIsODEuOTM4OTgtMTguNjQxNzIsODEuOTM4OTgtMjIuNjQxNzItMi44Nzc5NC03LTIuODc3OTQtN2gtLjAwMDAzWiIvPjxlbGxpcHNlIGZpbGw9IiNmZmI2YjYiIHRyYW5zZm9ybT0idHJhbnNsYXRlKC0yMzEuMDU0NzggODkuNjMxNzIpIHJvdGF0ZSgtMzcuNDM0NzUpIiByeT0iMjEuMDYxODYiIHJ4PSIxMy41ODgzIiBjeT0iMzg1Ljc4NjM0IiBjeD0iMTYuNzQzMjkiLz48ZWxsaXBzZSBmaWxsPSIjZmZiNmI2IiB0cmFuc2Zvcm09InRyYW5zbGF0ZSgtMjE3LjA2NjY0IDIxNS44NzI2Nikgcm90YXRlKC0yNi4xMjEyNykiIHJ5PSIyNC41ODc3NyIgcng9IjE1Ljg2MzEiIGN5PSI1NzUuNzg2MzYiIGN4PSIzNTYuNzQzMjkiLz48Y2lyY2xlIGZpbGw9IiNmZmI2YjYiIHI9IjQ0LjI5MTI0IiBjeT0iMTk0Ljc0ODYyIiBjeD0iMTg2Ljc0MzA2Ii8+PHBhdGggZmlsbD0iIzJmMmU0MSIgZD0ibTE5OC42NjM4OSwyMzcuMTM3OThsLS41MjU1Ny0xNC45MTg0NnMtMjYuNzQ5MzMtNjEuMzMzMzYtNDUuNzg2LTUzLjc2ODY5bC05LjI4Njk2LDE2Ljg3Mjc2cy03LjUyMjM1LTQuNzkwNTcuMTQ2OC0xNS40MDE3NS42NTEyMy03LjYwNjMyLjY1MTIzLTcuNjA2MzJjMCwwLTkuNjQ0NTktNi4zMjQ0MiwxLjg5MDg1LTExLjU1NjU5LDExLjUzNTQ2LTUuMjMyMTksMTguOTk0MzgtMjEuODEwNzUsNDEuOTYwNzgtMi42MjcyNywxMi43NTY5MywxMC42NTU2NywyNy4wMTgwNCwyNy43ODEzLDM3LjE3NjMyLDQwLjkwMTU4LDExLjQwMTg5LDE0LjcyNjUzLDcuMjE3OTksMzYuNTY5MDYtOS4yNzM0OCw0NS4yMjM4NS00LjkyODU2LDIuNTg2NTMtMTAuNTk3ODIsMy45MjA4OC0xNi45NTM5NSwyLjg4MDkybC0uMDAwMDMtLjAwMDAyWiIvPjxwYXRoIGZpbGw9IiMyZjJlNDEiIGQ9Im0yMTkuMjA5NDYsMzA1LjUzNTM0Yy0xMy4xOTYzMywxNi42MzEyNi0yMi4xMTMyNCwzOC4zODg4OS0yNC45Mzc4NCw2MC44NDk1Mi0xMC40MTQyMi04LjkzODY5LTE1Ljc4NTMyLTI1LjEwMjkxLTE1Ljg1NTEtNDEuMzUwOTJzNC42NzQtMzIuNTIwMjMsMTEuNDM4MDItNDcuMDY2MTNjLjA2NzY0LS4xNDU0NS4xMzU0OC0uMjkwNzcuMjAzNTEtLjQzNTk0LDEwLjIyNjg1LTIxLjgyMTAzLDguMzg3MjgtNDguMzgwNDMtNC45NDM4LTY1LjE2NjQzLTguOTkyMTYtMTEuMzIyNTktMTYuMTgyOTgtMjQuODU4Mi0yMC45NTYxNS0zOS44MDYwMi0yLjY5NDY2LTguNDM4NzEtNC40Njk1MS0xOC43NjE4Ni0uMTE5MTQtMjYuNzQzMjQsNC4wMDg3LTcuMzU0NTIsMTEuNjYzNjItOS44NDU5OSwxOC41NTgyMy0xMS4yMjMwNCwxNS43NDM0Mi0zLjE0NDM2LDMyLjAyMTEzLTMuNzM1OTYsNDYuNjY3OCwyLjI4MDExczI3LjUwMDQ3LDE5LjQyMjg3LDMxLjg3NTM1LDM3LjgzNTA3YzQuMzc0ODgsMTguNDEyMjItMS4zNTg0Myw0MS42MjUyOS0xNS4xMjcwMSw1Mi40OTEzNSwzLjQzODIzLDIuMTAwMTYsNS4yNDA5OCw3LjQzNTg3LDQuMTM0MzEsMTIuMjM2NTNzLTUuMDEzOTgsOC41OTQxOS04Ljk2MDY5LDguNjk5OGMyLjUxNTA2LjI5NzIzLDMuMzEyMzIsNC42NzM2NSwxLjk0MTY0LDcuNDYzNDItMS4zNzA3LDIuNzg5NzgtMy45NjUyOSw0LjIzNzUtNi40MDMwMiw1LjM5MDA2LTMuNDcyMzcsMS42NDE3Mi03LjI5OTM2LDMuMzI2MzUtOC4yMzQ4Niw4Ljk2MDI3LS4zNzUxMSwyLjI1OS0uMDkzMTksNC41NTcxLjY1MzMyLDYuNTY1MTIsMS44MDkwNyw0Ljg2NjEyLDUuNTc3NjcsNy41NDA4OSw5LjIxMzIxLDEwLjA2ODAyLTguODQ2MDgsMS43MjQ0LTE3LjAzMDg1LDEwLjAxMDY1LTIwLjI4NjMyLDIwLjUzNzgxIi8+PHBhdGggZmlsbD0iIzNmM2Q1NiIgZD0ibTI0Ny45MzM0Niw0NzQuODU2NzVjNS45MjA3LDcuNDUwNTYsNS45NjU2NCwxOC40ODA4NywxMy44MzIzNywyNC42MDIxMSwzLjI2MjQyLDIuNTM4NTQsNy45NDk4MywzLjg4NzQ4LDExLjk1NTUxLDIuNDEyMzIsMy45NzI0MS0xLjQ2MjkyLDYuMjE5ODUtNS4xNDQxMyw2LjY3MDM1LTkuMjMzODMuNDc5NjEtNC4zNTM5NC0xLjMyNzA5LTguNDkyMDMtMy45MjcyOC0xMS44ODc3My0yLjgwODI5LTMuNjY3NDgtNi40MTkxOS03LjE0MTA4LTEwLjMyNzE4LTkuNjE5NDgtMy42MjA3OS0yLjI5NjI2LTguMDI1NzYtMy40OTkxOC0xMi4yMTM2Ny0yLjExNDU2LTQuMjE5NjIsMS4zOTUxMS02LjcxNTk2LDQuODE0Ny02LjgyNDUxLDkuMjUxNDMtLjA3NTc0LDMuMDk1OTguMzYxNTMsNi4yNDc0NC41ODg2NCw5LjMzMzRsLjY5MTY0LDkuMzk3NTUsMS40MTk2NiwxOS4yODk3Yy4xNDA4NSwxLjkxMzg4LDMuMTQxOTgsMS45MjkyNiwzLDBsLTIuMjIwNDktMzAuMTcxMDhjLS4xNzU1NS0yLjM4NTM4LS40NDk0OC00Ljc4NzI5LS40ODI5MS03LjE3OTc1LS4wMjcwNC0xLjkzNTEyLjI5NzI2LTMuODM5MzksMS43MDQxOS01LjI2MDc3LDIuNDYzOS0yLjQ4OTE3LDYuMzU2MzQtMi43MDY3LDkuNTAzNjItMS42MTU4OCwzLjkwMjUsMS4zNTI2LDcuMTIwNjcsNC40MjAzMiw5Ljk2NzA0LDcuMzA0MTEsMi43Njk1OSwyLjgwNTk3LDUuNDg3NzMsNi4xODYzNCw2LjA4ODk5LDEwLjIwNzgyLjQ3ODg1LDMuMjAyOTEtLjQzNTc2LDcuMDUzNjUtMy4zNDU4Niw4Ljg1NTUtMy4xOTEwNywxLjk3NTgzLTcuNDM4NDIuOTE5NjItMTAuMjc0NTEtMS4yMTEzNi0zLjcxMjQzLTIuNzg5NDYtNS42NTcwNC03LjQwNTc2LTcuMjcwMzItMTEuNjA2Ni0xLjczNDI1LTQuNTE1ODctMy4zNzExOS05LjA0NTI2LTYuNDEzOTMtMTIuODc0MjQtMS4yMDA3LTEuNTEwOTYtMy4zMTA4OC42MjQzNi0yLjEyMTMyLDIuMTIxMzFoMGwtLjAwMDA1LS4wMDAwMy4wMDAwMi4wMDAwM1oiLz48cGF0aCBmaWxsPSIjM2YzZDU2IiBkPSJtMjQ3LjIxOTQ3LDQ3MS43MzU0MWMtMi42ODM0LDMuMzc2NzctNC4yOTEyOSw3LjI5NzEyLTUuODEyODUsMTEuMjk2MDgtMS40NzM1NCwzLjg3Mjc3LTIuOTU2MTIsNy45NjI1OS01LjcyMTgzLDExLjEzMTU2LTIuNDA0NCwyLjc1NS02LjAyMzMzLDQuNzkyMDUtOS43OTIwOCw0LjIyNDY3LTMuNjM0ODMtLjU0NzIxLTUuODA3Ni0zLjc2ODU1LTYuMDU2NjctNy4yNjgzMS0uMjc2NDQtMy44ODQ1MiwxLjUzODA5LTcuNDIzNjUsMy45NjY1NC0xMC4zNDM5LDIuNjI3MDktMy4xNTkxMiw1LjgzMTgtNi4yNzQ1NCw5LjM3NjQtOC4zODA2NSwzLjA5MTA2LTEuODM2NjQsNi44NDQwMi0yLjc0MzAxLDEwLjIzNzIxLTEuMTQ1MDIsMS40NzQzNy42OTQzNCwyLjczNDA5LDEuODI4NTgsMy4zMTYwOSwzLjM3NjE5Ljc5Nzk0LDIuMTIxOC4zOTg0Nyw0LjU4MDA1LjIzNjUsNi43ODA5OC0uODMxMTgsMTEuMjkzNTUtMS42NjIzMiwyMi41ODcxLTIuNDkzNSwzMy44ODA2OC0uMTQxNzUsMS45MjYwMywyLjg1ODkyLDEuOTE3MDUsMywwLC44MzcyMy0xMS4zNzU5OCwxLjY3NDQ3LTIyLjc1MTk4LDIuNTExNy0zNC4xMjc5Ni4xODM3Mi0yLjQ5NjI1LjQ3NDMtNS4xNDE3NS0uNDM1MzUtNy41NDAwNy0uNjk4OTktMS44NDI5LTEuOTc5MjItMy4zMzgxMy0zLjYyOTc1LTQuNDAzMTQtMy40OTg0NC0yLjI1NzQyLTcuOTQ3NjYtMi4yMzA1LTExLjcwNDE5LS42ODI0Ni00LjI4NTA4LDEuNzY1ODQtNy45MDI0Miw1LjExMDgxLTExLjA0NTMsOC40NDMxOC0zLjA4MTA5LDMuMjY2ODUtNS43NDg5OSw3LjE0OTU3LTYuMjc1NjUsMTEuNzEyMTMtLjQ1MDY4LDMuOTA0NDIuNzg0ODEsOC4yMDkwNSwzLjk2MzU4LDEwLjY5NjU5LDMuNDU5MDksMi43MDY5MSw4LjEzMzc3LDIuNTAyMjksMTEuOTY0NTIuNzMxMjksMTAuMzM3MDUtNC43Nzg5NiwxMC4xNDMyMy0xOC4yNDEwOSwxNi41MTU5OC0yNi4yNjA1LDEuMTg5MDctMS40OTYzMS0uOTIwMS0zLjYzMjkzLTIuMTIxMzItMi4xMjEzMWgtLjAwMDAydi0uMDAwMDNaIi8+PGc+PHBhdGggZmlsbD0iIzNmM2Q1NiIgZD0ibTY4LjEzNzEyLDM0MC4xNDgzNHMtMjIuNjY5MTksMjEuNDc2MDctNjAuODQ4OTQsMGw1Ljk2NTU4LDcxLjU4Njk4cy41MzYxMy4xNzIsMS40OTY0Ni40NDI1N2MuNjkzNjYsMi41MTM0OSwyLjU5MDIxLDQuNTc4NTUsNS4xNjUxNiw1LjM5MjQ2LDguMzEwMDYsMi42MjY2NSwyNC4yOTEyNiw2LjIwNjg1LDM1LjA5NDQyLS41OTM2OSwyLjI1MzYtMS40MTg2NCwzLjU4MjQtMy45MzQ1MSwzLjU4MjQtNi41OTc0MXYtLjIwNzRjLjgzODI2LS42MTI5OCwxLjY0MzM3LTEuMjczMDEsMi4zODYyMy0yLjAxNTg3bDcuMTU4NjktNjguMDA3NjNaIi8+PGVsbGlwc2UgZmlsbD0iIzZjNjNmZiIgcnk9IjEwLjczODA0IiByeD0iMzAuNDI0NDgiIGN5PSIzNDAuMTQ4MzQiIGN4PSIzNy43MTI2NCIvPjwvZz48Zz48cGF0aCBmaWxsPSIjM2YzZDU2IiBkPSJtMzYwLjEzNzExLDUyOC4xNDgzNHMtMjIuNjY5MTksMjEuNDc2MDctNjAuODQ4OTQsMGw1Ljk2NTU4LDcxLjU4Njk4cy41MzYxMy4xNzIsMS40OTY0Ni40NDI1N2MuNjkzNjYsMi41MTM0OSwyLjU5MDIxLDQuNTc4NTUsNS4xNjUxNiw1LjM5MjQ2LDguMzEwMDYsMi42MjY2NSwyNC4yOTEyNiw2LjIwNjg1LDM1LjA5NDQyLS41OTM2OSwyLjI1MzYtMS40MTg2NCwzLjU4MjQtMy45MzQ1MSwzLjU4MjQtNi41OTc0MXYtLjIwNzRjLjgzODI2LS42MTI5OCwxLjY0MzM3LTEuMjczMDEsMi4zODYyMy0yLjAxNTg3bDcuMTU4NjktNjguMDA3NjNaIi8+PGVsbGlwc2UgZmlsbD0iIzZjNjNmZiIgcnk9IjEwLjczODA0IiByeD0iMzAuNDI0NDciIGN5PSI1MjguMTQ4MjgiIGN4PSIzMjkuNzEyNjQiLz48L2c+PC9zdmc+;" parent="1" vertex="1">
                    <mxGeometry x="630" y="140" width="75.63" height="106" as="geometry"/>
                </mxCell>
                <mxCell id="8" value="" style="shape=image;imageAspect=0;aspect=fixed;verticalLabelPosition=bottom;verticalAlign=top;image=data:image/svg+xml,PHN2ZyB4bWxuczp4bGluaz0iaHR0cDovL3d3dy53My5vcmcvMTk5OS94bGluayIgeG1sbnM9Imh0dHA6Ly93d3cudzMub3JnLzIwMDAvc3ZnIiB2aWV3Qm94PSIwIDAgNTIzLjA0ODM1IDQ5Mi41NzQzOCIgaGVpZ2h0PSI0OTIuNTc0MzgiIHdpZHRoPSI1MjMuMDQ4MzUiPjxnPjxwYXRoIGZpbGw9IiNmZmFmYWYiIGQ9Im0yNDYuMzQ3MTIsMjE0LjE5NjE0Yy0yLjYzOTMyLTUuODMwNTMtMS42NDYxOC0xMS45MzQ3OCwyLjIxNzc5LTEzLjYzMzk1LDMuODYzOTctMS42OTkxOCw5LjEzNDY1LDEuNjUwMDEsMTEuNzc0MSw3LjQ4Mjk4LDEuMDg3NjMsMi4zMTU0LDEuNTgxODksNC44NjAzLDEuNDQxNDIsNy40MjE4bDEwLjg1ODA3LDI0Ljg0NzExLTEyLjI0NjE5LDQuOTE1NjktOS40MDM5Ny0yNS4wMTY3NGMtMi4wMjgyMS0xLjYwODM0LTMuNjE5Ny0zLjY3MTU0LTQuNjQxMjEtNi4wMTY4OFoiIGlkPSJ1dWlkLTJkYmQyZDY3LTUyZDItNDVmZS1iNDEwLWQ2Mzg3YzliNDJhMC0zOTEiLz48cGF0aCBmaWxsPSIjNmM2M2ZmIiBkPSJtMzIxLjM4NzA2LDIyNC43NDYyNmwuMDAwMDIuMDAwMDJjNi42MTk3Niw2LjI0MjExLDYuMjA1MTQsMTYuODkyMDYtLjg3OTg4LDIyLjYwMDYybC0zNC42OTU2NCwyNy45NTVjLTMuNzg2NjEsMy4wNTA5NS05LjQwNjM0LDEuOTcyOTktMTEuNzk1MjctMi4yNjI1OC05LjExNzg2LTE0Ljc2MTM3LTEwLjgzNjY2LTE1LjU3MDkyLTE2LjEzNTk5LTMwLjY5OTcybDE0Ljk0NDMyLTUuMjI3NDEsOC40MjYxMiwxMC41NTA4OCwxOC4zOTY3OC0yMS43MDI0M2M1LjU1OTk3LTYuNTU5MDIsMTUuNDgzNjctNy4xMTMzNiwyMS43Mzk1NS0xLjIxNDM4WiIvPjwvZz48cmVjdCBmaWxsPSIjZGZkZmRmIiB0cmFuc2Zvcm09InRyYW5zbGF0ZSgzMTQuNDI5MTkgNDguNTcwODEpIHJvdGF0ZSg5MCkiIGhlaWdodD0iMTA5IiB3aWR0aD0iMTEiIHk9IjEyNyIgeD0iMTI3LjQyOTE5Ii8+PHJlY3QgZmlsbD0iI2RmZGZkZiIgdHJhbnNmb3JtPSJ0cmFuc2xhdGUoNTkwLjQyOTE5IC0yMjcuNDI5MTkpIHJvdGF0ZSg5MCkiIGhlaWdodD0iMTA5IiB3aWR0aD0iMTEiIHk9IjEyNyIgeD0iNDAzLjQyOTE5Ii8+PGc+PHJlY3QgZmlsbD0iIzNmM2Q1NiIgcnk9IjEzLjA4NjE5IiByeD0iMTMuMDg2MTkiIGhlaWdodD0iOTQuOTkyMzEiIHdpZHRoPSI0NC44MDc2OSIgeT0iMTM4LjAwNzY5IiB4PSIxMDcuMDg5NTIiLz48cmVjdCBmaWxsPSIjM2YzZDU2IiByeT0iMTMuMDg2MTkiIHJ4PSIxMy4wODYxOSIgaGVpZ2h0PSI5NC45OTIzMSIgd2lkdGg9IjQ0LjgwNzY5IiB5PSIxMzguMDA3NjkiIHg9IjQwMS4wMjc5OCIvPjxwYXRoIGZpbGw9IiNkZmRmZGYiIGQ9Im00MjAuOTM3ODcsMjA5LjdIMTM2LjMzNzkyYy05Ljg5NDQ1LDAtMTguMzYwODctNy4wNjU5Ni0yMC4xMzA4Ni0xNi44MDAyNmwtMTAuODgzODEtNTkuODYxMTVjLTQuNzMzMjUtMjYuMDMzMDksNS4wNzQxMi01Mi41NTYyNywyNS41OTk2OC02OS4yNDYyNmwyMS40NjEwOS00Ni4xNzM4YzQuOTc0NTctMTAuNzAzMDksMTUuODE1MjgtMTcuNjE4NTIsMjcuNjE3NzctMTcuNjE4NTJoMTYwLjMxNjE1YzguNTIyNjUsMCwxNi43MTA5OSwzLjYwNTYyLDIyLjQ2NTk4LDkuODkyN2wzOS40MzQ3MSw0My4wODYyN2MyOC44NTA2NCwxOS40NDE0Niw0NS4yMTgxNCw1My4wNjU2MSw0Mi43MjE3Nyw4Ny43Njc5NGwtMy41OTQ0Niw0OS45NjA1OGMtLjc2NjE5LDEwLjY0OTctOS43MzAzNiwxOC45OTI1MS0yMC40MDgwNywxOC45OTI1MVoiLz48cGF0aCBmaWxsPSIjZmZmIiBkPSJtMzcyLjM2NjgxLDU5LjU5NDIzaC0yMTUuMDE4NzNjLTMuNzM0MjcsMC03LjE4MDE3LTEuODY4NDUtOS4yMTc3NC00Ljk5NzExLTIuMDM3NTctMy4xMjk1NC0yLjM1MjQtNy4wMzcwOC0uODQxODktMTAuNDUxOTJsMTEuMzMzNDEtMjUuNjIzNTJjMS43MjQ5Mi0zLjg5OTY3LDUuNTkzNzQtNi40Njk5OSw5Ljg1NTk0LTYuNTQ3ODdsMTgzLjI5NzE1LjIyMzE2YzMuNDkwMS0uMDIyNzUsNi44MjI4OSwxLjU0ODE0LDguOTM5LDQuMzEyNzRsMjAuMzg4MTYsMjUuNDAwMzZjMi41NjIyMiwzLjM0ODMyLDIuOTkzODksNy43NzU3MSwxLjEyNjc2LDExLjU1NjM2LTEuODY3MTMsMy43Nzk3Ny01LjY0NjAzLDYuMTI3OC05Ljg2MjA3LDYuMTI3OFoiLz48Y2lyY2xlIGZpbGw9IiNmZmYiIHI9IjE4LjgxOTIzIiBjeT0iMTA4LjQzNDYyIiBjeD0iNDA0LjYxMjYiLz48Y2lyY2xlIGZpbGw9IiNmZmYiIHI9IjE4LjgxOTIzIiBjeT0iMTA4LjQzNDYyIiBjeD0iMTU3LjI3NDE0Ii8+PHBhdGggZmlsbD0iIzNmM2Q1NiIgZD0ibTM4Ni4yNDE0NSwxNzguNzgyNjloLTIwNS4yMTkyM3YtLjQ0ODA4YzAtMTAuNjI0MzIsOC42NDMyLTE5LjI2NzMxLDE5LjI2NzMxLTE5LjI2NzMxaDE2Ni42ODQ2MmMxMC42MjQxMSwwLDE5LjI2NzMxLDguNjQyOTgsMTkuMjY3MzEsMTkuMjY3MzF2LjQ0ODA4WiIvPjxwYXRoIGZpbGw9IiNkZmRmZGYiIGQ9Im0xMzMuOTM5MTMsNjcuNzM5MjVjLTEuMTEwNTcsMC0yLjIyMzMyLS4zNTM1Ni0zLjE1NzU0LTEuMDY3NjhsLTcuNTEzODItNS43NDQ0OWMtLjc0NjA3LS41NzA2LTEuNjc0MzgtLjg4NDc4LTIuNjE0MDctLjg4NDc4aC0xNi40MDg4NWMtMS44Nzc0MiwwLTMuNTU5ODktLjk2OTY3LTQuNTAwNDYtMi41OTQ4Mi0uOTQwNTctMS42MjQyOC0uOTQ0MDctMy41NjYyNC0uMDA5NDEtNS4xOTQwMmw0LjAwNTc4LTYuOTc4NDVjLjgwMDExLTEuMzk0MTEsMi4yMjkwMS0yLjM1MzI4LDMuODIyNjYtMi41NjU5NGwyMC41Mjk3MS0yLjczNzQ3YzIuNTU4NzItLjMzOTU2LDQuOTQwODgsMS4yMDY4Myw1LjY3MzE2LDMuNjc4MjZsNS4xNTk2NywxNy40MTM3NGMuNTY4MTksMS45MTc0NS0uMDI3NTcsNC4wMTc4MS0xLjUxNzk1LDUuMzUyNDItLjk4MjE0Ljg3ODY1LTIuMjIzOTgsMS4zMjMyMy0zLjQ2ODg4LDEuMzIzMjNaIi8+PHBhdGggZmlsbD0iI2RmZGZkZiIgZD0ibTQwMC4xNjY4NCw2NC4xNTQ2NGMtMS4yNDQ5LDAtMi40ODY1Mi0uNDQ0NTgtMy40Njg4OC0xLjMyMzIzLTEuNDkwMTYtMS4zMzQ2LTIuMDg1OTItMy40MzQ5Ni0xLjUxNzk1LTUuMzUyNDJsNS4xNTk2Ny0xNy40MTM3NGMuNzMyMjgtMi40NzMxNywzLjExODM4LTQuMDI0ODIsNS42NzMxNi0zLjY3NzM4bDIwLjUyOTkzLDIuNzM2NTljMS41OTM0My4yMTI2NiwzLjAyMjMzLDEuMTcxODMsMy44MjI0NCwyLjU2NTk0bDQuMDA1NzgsNi45Nzg0NWMuOTM0NjYsMS42Mjc3OC45MzExNiwzLjU2OTc0LS4wMDk0MSw1LjE5NDAyLS45NDA1NywxLjYyNTE1LTIuNjIzMDQsMi41OTQ4Mi00LjUwMDQ2LDIuNTk0ODJoLTE2LjQwODg1Yy0uOTM5NjksMC0xLjg2ODAxLjMxNDE4LTIuNjE0MDcuODg0NzhsLTcuNTEzODIsNS43NDQ0OWMtLjkzNC43MTQxMi0yLjA0NzIsMS4wNjc2OC0zLjE1NzU0LDEuMDY3NjhaIi8+PC9nPjxyZWN0IGZpbGw9IiNkZmRmZGYiIGhlaWdodD0iNDUxIiB3aWR0aD0iMTEiIHk9IjM0IiB4PSI3OC40MjkxOSIvPjxyZWN0IGZpbGw9IiNkZmRmZGYiIGhlaWdodD0iNDUxIiB3aWR0aD0iMTEiIHk9IjM0IiB4PSI0NTguNDI5MTkiLz48cGF0aCBmaWxsPSIjM2YzZDU2IiBkPSJtMCw0ODUuNDM4N2MwLC4zNDI4NC4yNzUzMS42MTgxMi42MTgxNS42MTgxMmg1MjEuODEyMDhjLjM0MjgxLDAsLjYxODEyLS4yNzUyOC42MTgxMi0uNjE4MTIsMC0uMzQyODEtLjI3NTMxLS42MTgxMi0uNjE4MTItLjYxODEySC42MTgxNWMtLjM0Mjg0LDAtLjYxODE1LjI3NTMxLS42MTgxNS42MTgxMloiLz48cG9seWdvbiBmaWxsPSIjZmZhZmFmIiBwb2ludHM9IjM0NC41NDAzMyA0NTEuMzIzNTYgMzQ0LjU0MDMzIDQ3MS43NTE2NiAzNTkuOTg1OTcgNDcyLjI0OTkxIDM1OS4zNDI0IDQ1MS4zMjM1NiAzNDQuNTQwMzMgNDUxLjMyMzU2Ii8+PHBhdGggZmlsbD0iIzJmMmU0MSIgZD0ibTM0MS40ODM3MSw0NjIuNjkwMjljLS4yMDg3NCwwLS40MTMxLjAyNjc2LS42MTE2Mi4wODMyLTIuNzg3NTUuNzk2NTEtMTguOTIzMTUsMTUuMjAyMzYtMjMuODAxOTcsMTkuNTk4NTEtLjYwMjg2LjU0MzAxLS45MjMwMiwxLjMxODYtLjg3ODc0LDIuMTI3NzcuMDQzNzkuODA1NzYuNDQ0NzIsMS41MzgwNCwxLjA5OTE2LDIuMDA5MDQsMy43MDAzNiwyLjY2NDk0LDExLjI4MDYxLDYuODgwNTcsMjAuNDc4MjIsNS4xNzcwOSw0LjIzMDcyLS43ODM4Niw4LjUwMDM2LTEuMjc2NzYsMTIuMjY3MzctMS43MTEyNiw4LjA2NDM5LS45MzEyOSwxNC40MzQwNi0xLjY2NjUsMTQuNDM0MDYtNC41MjEyLDAtNC44NDM3OS0xLjMzMjIzLTE3LjYwOTktMy4wMDQwOC0xOC4xNDYxLS4xNTE4MS0uMDQ2MjItLjMyNzQ2LjA3MTA0LS41Mjk4Ny4zNTQyMi0yLjU1Nzg5LDMuNTgwNjYtMTEuMzQzODcsMS42NzUyNi0xMS43MTY1OCwxLjU5MzAzbC0uMDk3OC0uMDIxOS0uMDU1NDctLjA4MzJjLS4wNDU3NC0uMDY4NjEtNC4zNDc0OS02LjQ1OTItNy41ODI2OS02LjQ1OTJaIi8+PHBvbHlnb24gZmlsbD0iI2ZmYWZhZiIgcG9pbnRzPSIzMTUuNjQyMDQgNDUxLjMyMzU2IDMxNS42NDIwNCA0NzEuNzUxNjYgMzMxLjA4NzY4IDQ3Mi4yNDk5MSAzMzAuNDQ0MTEgNDUxLjMyMzU2IDMxNS42NDIwNCA0NTEuMzIzNTYiLz48cG9seWdvbiBmaWxsPSIjMmYyZTQxIiBwb2ludHM9IjMwOS40MTM5NSAzMDUuMDg4MjIgMzAxLjE5Mjg5IDMxMS4zMTYzIDI5OS42OTgxNSAzODEuNTY5MDUgMzEzLjY0OTA1IDQ1OC4yOTkwMSAzMzEuODM1MDUgNDU5LjA0NjM4IDMzMi4zMzMyOSAzODUuODA0MTUgMzU1Ljc1MDg4IDMxOS4wMzkxMiAzNTEuMDE3NTQgMzAzLjM0NDM2IDMwOS40MTM5NSAzMDUuMDg4MjIiLz48cG9seWdvbiBmaWxsPSIjMmYyZTQxIiBwb2ludHM9IjM0Ny43Nzg5MyAzMTcuMDQ2MTMgMzU1Ljc1MDg4IDMxOS4wMzkxMiAzNjEuNDgwNzEgNDU4LjI5OTAxIDM0MC44MDM0OCA0NTYuNTU1MTUgMzI3LjEwMTcgMzU4LjE1MTQ3IDM0Ny43Nzg5MyAzMTcuMDQ2MTMiLz48cGF0aCBmaWxsPSIjMmYyZTQxIiBkPSJtMzA0LjYxNDQ0LDQ5Mi41NzQzOGMtNy4wODc4NSwwLTEyLjg0Njg4LTMuMTMzMDItMTUuOTIyNDgtNS4yNDUyMS0uOTI5MzUtLjYzODM4LTEuNTA0NDctMS42NTE0MS0xLjU3Nzk0LTIuNzc5NzctLjA3NDQ1LTEuMTM4NTcuMzY5MzEtMi4yMjg0OSwxLjIxNzQtMi45OTE0Myw3LjYzMzc4LTYuODY3NDMsMjAuODM5MjYtMTguNTAxNzgsMjMuNTA1MTctMTkuMjYzMjYsMy40NTUxMy0uOTkwMTcsOC4wOTIxMyw1LjYxNzQ0LDguNjg4NjYsNi40OTM3NS45NjUzNS4xOTc1NSw4Ljg3NTAyLDEuNzA4ODMsMTEuMTA2OTEtMS40MTY4OS40MjU3NS0uNTk1NTYuODI1MjItLjYyMjMyLDEuMDg3NDgtLjUzODYzLDIuMzg1MTYuNzY0NCwzLjM1MDUxLDE2LjExOTA1LDMuMzUwNTEsMTguNjIwNSwwLDMuMjk4OTQtNi4yMzkyNyw0LjAxOTA2LTE0Ljg3NDksNS4wMTYwNC0zLjc1OTIzLjQzNDAyLTguMDIwMTEuOTI1OTQtMTIuMjM0MjksMS43MDU5MS0xLjQ5Mzc3LjI3Njg2LTIuOTQ2MTcuMzk4OTktNC4zNDY1Mi4zOTg5OVoiLz48cG9seWdvbiBmaWxsPSIjZmZhZmFmIiBwb2ludHM9IjMyNi40OTY4IDIxNC4wOTQyNiAzMzIuMTcxNzggMjI1LjUyNzI0IDMxMC43MjI2NiAyMzUuODg2MzEgMzEwLjk4NTQ1IDIxNy41NTc4NyAzMjYuNDk2OCAyMTQuMDk0MjYiLz48Y2lyY2xlIGZpbGw9IiNmZmFmYWYiIHI9IjE5LjMwMDIyIiBjeT0iMjAzLjQ0MjczIiBjeD0iMzEwLjc5OTUzIi8+PHBhdGggZmlsbD0iIzZjNjNmZiIgZD0ibTMxMC42Njg4OCwyMzEuNDI5MTJsMTkuNzg5NjgtMTEuNjkzOWgwbC4wMDAwMi4wMDAwMmMxNC41MTQ0OCwxMC4xNzg5OSwyNi42MDEzNywxMi41NjAzNiwyNi45ODU5LDMwLjI4NDE4bC0yLjY3NDk4LDQyLjI3Nzk0LjE1Njc3LDE4LjIwODA0Yy4wNjU4MSw3LjY0MzY3LTYuMTEyMzEsMTMuODc1MjItMTMuNzU2MjcsMTMuODc1MjJoLTI4LjI1ODcxYy03LjQ3ODMsMC0xMy4wNDk5NS02Ljg5OTQ3LTExLjQ3NTM1LTE0LjIxMDEybDUuMzM0OTgtMjQuNzY5NTQtNS42OTcwMy00OC4yNzQ4Miw5LjU5NDk5LTUuNjk3MDNaIi8+PHBhdGggZmlsbD0iIzJmMmU0MSIgZD0ibTMzMC42NDY3MiwyMTMuMTUzNjVsLTMuNTY4MzMsMi41NTY0MnMtMS4wNTAwOC0xMS4xNDE4Ni0yLjQ5ODg2LTExLjYzNjMtMy40MDM1MSwyLjA3MzUtMy40MDM1MSwyLjA3MzVsLTEuNDI3NTIsNC4xODI4My00LjcyMDI2LTEuOTY3NTVzLTUuNDY1NS0yLjk0MzYxLTcuMzk3MjEtMy42MDI4NmMtMS45MzE3MS0uNjU5MjUtMS42Mzg5Mi02LjI1Njc1LTEuNjM4OTItNi4yNTY3NSwwLDAtMjMuMTg5NzEsMy4xNzQ5OS0xOS43MDU2MS0xMC4xOTM2NywwLDAsMS4xOTk3NC05LjgzNDg3LDMuNzY3NjgtNy44ODAxNCwyLjU2Nzk0LDEuOTU0NzMsMi42MDI0Ny0yLjg4NjA1LDIuNjAyNDctMi44ODYwNWw1LjgxODE1LTEuMjQ5NDNzNy45ODM3NS0xMC43NTQ2NywyMy43MzI1MS0xLjYwNTczYzE1Ljc0ODc2LDkuMTQ4OTUsOC40Mzk0MiwzOC40NjU3Miw4LjQzOTQyLDM4LjQ2NTcyWiIvPjxwYXRoIGZpbGw9IiMzZjNkNTYiIGQ9Im0yOTAuMzY4MSwyNTUuODc0NTRsLTUuMjEzODItLjc5NDMxYy0xLjQ1NTgyLS4yMjE3OS0yLjQ2NTU5LTEuNTk0NDYtMi4yNDM3OS0zLjA1MDM0bC42MzcxOS00LjE4MjQ2Yy0xLjg5MjM3LDEuMTY5NDEtMy4yODExNywzLjEyNjczLTMuNjQyNDYsNS40OTgxOC0uNTU3NDIsMy42NTg4NCwxLjUwOTc0LDcuMTA0NDgsNC43OTAzNCw4LjQ0NjMybC00LjU2MjA2LDI5Ljk0NTA4Yy0uMDExNDQuMDc1MTItLjAwODk2LjE0ODcxLS4wMTExMy4yMjI5MS0zLjU0MTI4LjI5NDMyLTYuNTUyNzQsMi45NzIxMy03LjExMTM4LDYuNjM5LS4zMjc0NSwyLjE0OTM3LjI0OTgyLDQuMjI3NDMsMS40NDYzMyw1Ljg0ODZsLjU3MzkzLTMuNzY3MjZjLjIyMTgtMS40NTU4NywxLjU5NDUyLTIuNDY1NTgsMy4wNTAzNC0yLjI0Mzc5bDUuMjEzODIuNzk0MzFjMS40NTU4Mi4yMjE3OSwyLjQ2NTU5LDEuNTk0NDYsMi4yNDM3OSwzLjA1MDM0bC0uNjM3MTksNC4xODI0NmMxLjg5MjM3LTEuMTY5NDEsMy4yODExNy0zLjEyNjczLDMuNjQyNDYtNS40OTgxOC41NTg2NC0zLjY2Njg3LTEuNTE4NzktNy4xMTk5Ni00LjgxMTc4LTguNDU1NDYuMDIwMDItLjA3MTQ4LjA0NDMxLS4xNDA5OS4wNTU3NS0uMjE2MTFsNC41NjIwNi0yOS45NDUwOGMzLjUzMTM1LS4zMDQwNSw2LjUzMDc4LTIuOTc3ODEsNy4wODgyLTYuNjM2NjUuMzI3NDUtMi4xNDkzNy0uMjQ5ODItNC4yMjc0My0xLjQ0NjMzLTUuODQ4NmwtLjU3MzkzLDMuNzY3MjZjLS4yMjE4LDEuNDU1ODctMS41OTQ1MiwyLjQ2NTU4LTMuMDUwMzQsMi4yNDM3OVoiLz48Zz48cGF0aCBmaWxsPSIjZmZhZmFmIiBkPSJtMjgwLjY1NjYxLDI4MS45Mjk1NGMtNi4yNTY3MS0xLjM0NzEzLTEwLjU3MjQ1LTUuNzc2ODUtOS42Mzk1NS05Ljg5MzU1LjkzMjktNC4xMTY2OSw2Ljc2MDUxLTYuMzYwOCwxMy4wMTkyNS01LjAxMjMzLDIuNTA4MTQuNTAzMiw0Ljg0Nzc3LDEuNjE5ODksNi44MjMxMiwzLjI1NjY1bDI2LjQzMTU0LDYuMDUzOTctMy4zMzQwOSwxMi43Njc4MS0yNS43MDI4NC03LjMyMzY4Yy0yLjQ5OTM3LjY3MzQ2LTUuMTA0NTQuNzI1MjktNy41OTc0My4xNTExMloiIGlkPSJ1dWlkLTYxMDQ2OWM2LWU1MjMtNDg1Yy05MjY5LWQ1MDU5MjQyYjIyMy0zOTIiLz48cGF0aCBmaWxsPSIjNmM2M2ZmIiBkPSJtMzMzLjc3ODMyLDIyNy44ODg5OWguMDAwMDNjOC45NTU1MS0xLjYwNzUsMTcuMjY5MjUsNS4wNjE0OCwxNy42NDI4NiwxNC4xNTI0NGwxLjgyOTU2LDQ0LjUxODc5Yy4xOTk2Nyw0Ljg1ODY5LTQuMDA5OTgsOC43MzQ1Mi04LjgzNTcsOC4xMzQ5OC0xNy4yODk0LTEuNDUyNjktMTYuMDc0ODIuMzE4MS0zMS4zODc5LTQuNDIyNWwxLjAyNTUtMTYuMjcyNywxNC4yNjg4NS0uMjE2MjYtNi41MDAwMy0yNy42OTgxM2MtMS45NjQ0Ny04LjM3MTA3LDMuNDkzNi0xNi42Nzc0OSwxMS45NTY4My0xOC4xOTY2MloiLz48L2c+PC9zdmc+;" parent="1" vertex="1">
                    <mxGeometry x="476.94" y="408.75" width="106.12" height="100" as="geometry"/>
                </mxCell>
                <mxCell id="11" value="" style="verticalLabelPosition=bottom;verticalAlign=top;html=1;shape=mxgraph.basic.arc;startAngle=0.5820037828738378;endAngle=0.7817255174305535;" parent="1" vertex="1">
                    <mxGeometry x="316.25" y="81.25" width="427.5" height="427.5" as="geometry"/>
                </mxCell>
                <mxCell id="13" value="" style="verticalLabelPosition=bottom;verticalAlign=top;html=1;shape=mxgraph.basic.arc;startAngle=0.6740281228331393;endAngle=0.8581828002941254;rotation=90;" parent="1" vertex="1">
                    <mxGeometry x="316.25" y="81.25" width="427.5" height="427.5" as="geometry"/>
                </mxCell>
                <mxCell id="14" value="" style="verticalLabelPosition=bottom;verticalAlign=top;html=1;shape=mxgraph.basic.arc;startAngle=0.7125118519977893;endAngle=0.9218288854659397;rotation=-180;" parent="1" vertex="1">
                    <mxGeometry x="316.25" y="81.25" width="427.5" height="427.5" as="geometry"/>
                </mxCell>
                <mxCell id="15" value="" style="shape=singleArrow;direction=west;whiteSpace=wrap;html=1;rotation=60;" parent="1" vertex="1">
                    <mxGeometry x="330" y="388.75" width="30" height="20" as="geometry"/>
                </mxCell>
                <mxCell id="16" value="" style="shape=singleArrow;direction=west;whiteSpace=wrap;html=1;rotation=-180;" parent="1" vertex="1">
                    <mxGeometry x="520" y="70" width="30" height="20" as="geometry"/>
                </mxCell>
                <mxCell id="18" value="" style="shape=singleArrow;direction=west;whiteSpace=wrap;html=1;rotation=-60;" parent="1" vertex="1">
                    <mxGeometry x="705.63" y="380" width="30" height="20" as="geometry"/>
                </mxCell>
                <mxCell id="19" value="" style="shape=singleArrow;direction=west;whiteSpace=wrap;html=1;rotation=-120;" parent="1" vertex="1">
                    <mxGeometry x="380" y="368.75" width="30" height="20" as="geometry"/>
                </mxCell>
                <mxCell id="20" value="" style="shape=singleArrow;direction=west;whiteSpace=wrap;html=1;rotation=0;" parent="1" vertex="1">
                    <mxGeometry x="515" y="130" width="30" height="20" as="geometry"/>
                </mxCell>
                <mxCell id="21" value="" style="shape=singleArrow;direction=west;whiteSpace=wrap;html=1;rotation=120;" parent="1" vertex="1">
                    <mxGeometry x="660" y="348.75" width="30" height="20" as="geometry"/>
                </mxCell>
                <mxCell id="22" value="&lt;font style=&quot;font-size: 25px;&quot;&gt;GDP&lt;br&gt;(+6)&lt;br&gt;&lt;/font&gt;" style="text;strokeColor=none;align=center;fillColor=none;html=1;verticalAlign=middle;whiteSpace=wrap;rounded=0;" parent="1" vertex="1">
                    <mxGeometry x="505" y="270" width="60" height="30" as="geometry"/>
                </mxCell>
                <mxCell id="23" value="+2" style="text;strokeColor=none;align=center;fillColor=none;html=1;verticalAlign=middle;whiteSpace=wrap;rounded=0;fontSize=25;" parent="1" vertex="1">
                    <mxGeometry x="500" y="160" width="60" height="30" as="geometry"/>
                </mxCell>
                <mxCell id="24" value="&lt;font&gt;+1&lt;br&gt;&lt;/font&gt;" style="text;strokeColor=none;align=center;fillColor=none;html=1;verticalAlign=middle;whiteSpace=wrap;rounded=0;fontSize=25;fontColor=#FF0000;" parent="1" vertex="1">
                    <mxGeometry x="400" y="343.75" width="60" height="30" as="geometry"/>
                </mxCell>
                <mxCell id="25" value="&lt;font&gt;+2&lt;/font&gt;" style="text;strokeColor=none;align=center;fillColor=none;html=1;verticalAlign=middle;whiteSpace=wrap;rounded=0;fontSize=25;fontColor=default;" parent="1" vertex="1">
                    <mxGeometry x="600" y="343.75" width="60" height="30" as="geometry"/>
                </mxCell>
                <mxCell id="27" value="" style="shape=image;imageAspect=0;aspect=fixed;verticalLabelPosition=bottom;verticalAlign=top;fontSize=25;image=data:image/svg+xml,PHN2ZyB4bWxucz0iaHR0cDovL3d3dy53My5vcmcvMjAwMC9zdmciIGlkPSJzdmc1NCIgdmVyc2lvbj0iMS4xIiB2aWV3Qm94PSIwIDAgODY2LjgwNTE4IDMyNS43MTYzNyIgaGVpZ2h0PSIzMjUuNzE2MzciIHdpZHRoPSI4NjYuODA1MTgiPgogIDxkZWZzIGlkPSJkZWZzNTgiLz4KICAKICA8ZyBpZD0iZzUyIj4KICAgIDxwYXRoIGlkPSJwYXRoNDgiIGZpbGw9IiNmNzkzMWEiIGQ9Ik01NTMuOTAxNzYsMjIxLjk4MjAzYy0xNi4yNTYwNyw1OC40NzY3My04Mi4yOTYxMyw5NC4wNjQ4MS0xNDcuNTA3MDcsNzkuNDgyMzMtNjUuMTg0MjUtMTQuNTc5MDUtMTA0Ljg2NjEzLTczLjgwOTY2LTg4LjYwMjQtMTMyLjI4Mjk2LDE2LjI0ODUzLTU4LjQ4MzQ5LDgyLjI4ODU5LTk0LjA3NTEyLDE0Ny40ODAzOC03OS40OTU5Niw2NS4yMDcxMSwxNC41NzkwNSwxMDQuODg1MDUsNzMuODE2NTMsODguNjI4OTgsMTMyLjI5NjU5aC4wMDAxMloiLz4KICAgIDxwYXRoIGlkPSJwYXRoNTAiIGZpbGw9IiNmZmYiIGQ9Ik00ODkuNTA4NTUsMTgwLjAyNTM4YzIuNDIyOC0xNC41MjQ1LTkuOTA4MTQtMjIuMzMyNTUtMjYuNzY4OTUtMjcuNTQxMzRsNS40NjkzOC0xOS42NzUzMi0xMy4zNTQwMS0yLjk4NDcyLTUuMzI0ODcsMTkuMTU2OGMtMy41MTA2NC0uNzg0NTktNy4xMTYzNC0xLjUyNDc0LTEwLjY5OTE4LTIuMjU4MTFsNS4zNjI5NC0xOS4yODMwNy0xMy4zNDY0Ni0yLjk4NDcyLTUuNDczMjEsMTkuNjY4NDVjLTIuOTA1OS0uNTkzNTctNS43NTg1Mi0xLjE4MDI3LTguNTI3NDUtMS43OTc2OGwuMDE1MjEtLjA2MTQyLTE4LjQxNjU1LTQuMTI0MDktMy41NTI0MywxMi43OTE2N3M5LjkwODE0LDIuMDM2MzgsOS42OTg4NiwyLjE2MjY1YzUuNDA4NTUsMS4yMTA5OCw2LjM4NjAxLDQuNDIwNzcsNi4yMjI0Niw2Ljk2NTQ3bC02LjIzMDEyLDIyLjQxNDQ3Yy4zNzI3MSwuMDg1MjYsLjg1NTgxLC4yMDgwOSwxLjM4ODI0LC4zOTkxMi0uNDQ1MDMtLjA5ODg5LS45MjA0Ni0uMjA4MDktMS40MTExLS4zMTM4NmwtOC43MzI3OCwzMS4zOTkyNWMtLjY2MTg1LDEuNDczNjItMi4zMzkxMSwzLjY4Mzk2LTYuMTE5ODUsMi44NDQ5MiwuMTMzMTQsLjE3Mzk1LTkuNzA2NTItMi4xNzI4Ni05LjcwNjUyLTIuMTcyODZsLTYuNjI5NTMsMTMuNzA5MzEsMTcuMzc4MTYsMy44ODUyOGMzLjIzMjk5LC43MjY2MSw2LjQwMTMzLDEuNDg3MjYsOS41MjAxMSwyLjIwMzU3bC01LjUyNjQ4LDE5LjkwMDQ4LDEzLjMzODgsMi45ODQ3Miw1LjQ3MzIxLTE5LjY4ODk1YzMuNjQzNzcsLjg4NjkyLDcuMTgwOTksMS43MDU1NiwxMC42NDIxOSwyLjQ3NjUxbC01LjQ1NDE3LDE5LjU5NjgzLDEzLjM1NDAxLDIuOTg0NzIsNS41MjY0OC0xOS44NjI5YzIyLjc3MTUsMy44NjQ3OCwzOS44OTQ4OCwyLjMwNTg5LDQ3LjEwMjQ1LTE2LjE2NTMxLDUuODA3OTYtMTQuODcyNC0uMjg5MDItMjMuNDUxNC0xMi4yNzAxMi0yOS4wNDU2OCw4LjcyNTIzLTEuODA0NDUsMTUuMjk3NjYtNi45NTE4MywxNy4wNTEwNi0xNy41ODQyOGwuMDAwMjMsLjAwMDFabS0zMC41MTE2MiwzOC4zNzE1OWMtNC4xMjY3NiwxNC44NzI0LTMyLjA0ODIsNi44MzI0My00MS4xMDA1Myw0LjgxNjQ1bDcuMzMzMTctMjYuMzY0NTFjOS4wNTIzMywyLjAyNjE4LDM4LjA4MDU0LDYuMDM3NjMsMzMuNzY3MzcsMjEuNTQ3OTV2LjAwMDFabTQuMTMwNTktMzguNTg2NTVjLTMuNzY1NDIsMTMuNTI4NDktMjcuMDA0ODIsNi42NTUwNC0zNC41NDMzMiw0Ljk2OTk5bDYuNjQ4NDUtMjMuOTExOTRjNy41Mzg1LDEuNjg1MDUsMzEuODE2MTcsNC44MzAwOSwyNy44OTQ4NywxOC45NDE5NFoiLz4KICA8L2c+Cjwvc3ZnPg==;clipPath=inset(24.34% 35.33% 5.75% 35.67%);" parent="1" vertex="1">
                    <mxGeometry x="341.44" y="104.07" width="28.56" height="25.93" as="geometry"/>
                </mxCell>
                <mxCell id="28" value="" style="shape=image;imageAspect=0;aspect=fixed;verticalLabelPosition=bottom;verticalAlign=top;fontSize=25;image=data:image/svg+xml,PHN2ZyB4bWxucz0iaHR0cDovL3d3dy53My5vcmcvMjAwMC9zdmciIGlkPSJzdmc1NCIgdmVyc2lvbj0iMS4xIiB2aWV3Qm94PSIwIDAgODY2LjgwNTE4IDMyNS43MTYzNyIgaGVpZ2h0PSIzMjUuNzE2MzciIHdpZHRoPSI4NjYuODA1MTgiPgogIDxkZWZzIGlkPSJkZWZzNTgiLz4KICAKICA8ZyBpZD0iZzUyIj4KICAgIDxwYXRoIGlkPSJwYXRoNDgiIGZpbGw9IiNmNzkzMWEiIGQ9Ik01NTMuOTAxNzYsMjIxLjk4MjAzYy0xNi4yNTYwNyw1OC40NzY3My04Mi4yOTYxMyw5NC4wNjQ4MS0xNDcuNTA3MDcsNzkuNDgyMzMtNjUuMTg0MjUtMTQuNTc5MDUtMTA0Ljg2NjEzLTczLjgwOTY2LTg4LjYwMjQtMTMyLjI4Mjk2LDE2LjI0ODUzLTU4LjQ4MzQ5LDgyLjI4ODU5LTk0LjA3NTEyLDE0Ny40ODAzOC03OS40OTU5Niw2NS4yMDcxMSwxNC41NzkwNSwxMDQuODg1MDUsNzMuODE2NTMsODguNjI4OTgsMTMyLjI5NjU5aC4wMDAxMloiLz4KICAgIDxwYXRoIGlkPSJwYXRoNTAiIGZpbGw9IiNmZmYiIGQ9Ik00ODkuNTA4NTUsMTgwLjAyNTM4YzIuNDIyOC0xNC41MjQ1LTkuOTA4MTQtMjIuMzMyNTUtMjYuNzY4OTUtMjcuNTQxMzRsNS40NjkzOC0xOS42NzUzMi0xMy4zNTQwMS0yLjk4NDcyLTUuMzI0ODcsMTkuMTU2OGMtMy41MTA2NC0uNzg0NTktNy4xMTYzNC0xLjUyNDc0LTEwLjY5OTE4LTIuMjU4MTFsNS4zNjI5NC0xOS4yODMwNy0xMy4zNDY0Ni0yLjk4NDcyLTUuNDczMjEsMTkuNjY4NDVjLTIuOTA1OS0uNTkzNTctNS43NTg1Mi0xLjE4MDI3LTguNTI3NDUtMS43OTc2OGwuMDE1MjEtLjA2MTQyLTE4LjQxNjU1LTQuMTI0MDktMy41NTI0MywxMi43OTE2N3M5LjkwODE0LDIuMDM2MzgsOS42OTg4NiwyLjE2MjY1YzUuNDA4NTUsMS4yMTA5OCw2LjM4NjAxLDQuNDIwNzcsNi4yMjI0Niw2Ljk2NTQ3bC02LjIzMDEyLDIyLjQxNDQ3Yy4zNzI3MSwuMDg1MjYsLjg1NTgxLC4yMDgwOSwxLjM4ODI0LC4zOTkxMi0uNDQ1MDMtLjA5ODg5LS45MjA0Ni0uMjA4MDktMS40MTExLS4zMTM4NmwtOC43MzI3OCwzMS4zOTkyNWMtLjY2MTg1LDEuNDczNjItMi4zMzkxMSwzLjY4Mzk2LTYuMTE5ODUsMi44NDQ5MiwuMTMzMTQsLjE3Mzk1LTkuNzA2NTItMi4xNzI4Ni05LjcwNjUyLTIuMTcyODZsLTYuNjI5NTMsMTMuNzA5MzEsMTcuMzc4MTYsMy44ODUyOGMzLjIzMjk5LC43MjY2MSw2LjQwMTMzLDEuNDg3MjYsOS41MjAxMSwyLjIwMzU3bC01LjUyNjQ4LDE5LjkwMDQ4LDEzLjMzODgsMi45ODQ3Miw1LjQ3MzIxLTE5LjY4ODk1YzMuNjQzNzcsLjg4NjkyLDcuMTgwOTksMS43MDU1NiwxMC42NDIxOSwyLjQ3NjUxbC01LjQ1NDE3LDE5LjU5NjgzLDEzLjM1NDAxLDIuOTg0NzIsNS41MjY0OC0xOS44NjI5YzIyLjc3MTUsMy44NjQ3OCwzOS44OTQ4OCwyLjMwNTg5LDQ3LjEwMjQ1LTE2LjE2NTMxLDUuODA3OTYtMTQuODcyNC0uMjg5MDItMjMuNDUxNC0xMi4yNzAxMi0yOS4wNDU2OCw4LjcyNTIzLTEuODA0NDUsMTUuMjk3NjYtNi45NTE4MywxNy4wNTEwNi0xNy41ODQyOGwuMDAwMjMsLjAwMDFabS0zMC41MTE2MiwzOC4zNzE1OWMtNC4xMjY3NiwxNC44NzI0LTMyLjA0ODIsNi44MzI0My00MS4xMDA1Myw0LjgxNjQ1bDcuMzMzMTctMjYuMzY0NTFjOS4wNTIzMywyLjAyNjE4LDM4LjA4MDU0LDYuMDM3NjMsMzMuNzY3MzcsMjEuNTQ3OTV2LjAwMDFabTQuMTMwNTktMzguNTg2NTVjLTMuNzY1NDIsMTMuNTI4NDktMjcuMDA0ODIsNi42NTUwNC0zNC41NDMzMiw0Ljk2OTk5bDYuNjQ4NDUtMjMuOTExOTRjNy41Mzg1LDEuNjg1MDUsMzEuODE2MTcsNC44MzAwOSwyNy44OTQ4NywxOC45NDE5NFoiLz4KICA8L2c+Cjwvc3ZnPg==;clipPath=inset(24.34% 35.33% 5.75% 35.67%);" parent="1" vertex="1">
                    <mxGeometry x="500" y="480" width="28.56" height="25.93" as="geometry"/>
                </mxCell>
                <mxCell id="31" value="" style="shape=image;imageAspect=0;aspect=fixed;verticalLabelPosition=bottom;verticalAlign=top;fontSize=25;image=data:image/svg+xml,PHN2ZyB4bWxucz0iaHR0cDovL3d3dy53My5vcmcvMjAwMC9zdmciIGlkPSJzdmc1NCIgdmVyc2lvbj0iMS4xIiB2aWV3Qm94PSIwIDAgODY2LjgwNTE4IDMyNS43MTYzNyIgaGVpZ2h0PSIzMjUuNzE2MzciIHdpZHRoPSI4NjYuODA1MTgiPgogIDxkZWZzIGlkPSJkZWZzNTgiLz4KICAKICA8ZyBpZD0iZzUyIj4KICAgIDxwYXRoIGlkPSJwYXRoNDgiIGZpbGw9IiNmNzkzMWEiIGQ9Ik01NTMuOTAxNzYsMjIxLjk4MjAzYy0xNi4yNTYwNyw1OC40NzY3My04Mi4yOTYxMyw5NC4wNjQ4MS0xNDcuNTA3MDcsNzkuNDgyMzMtNjUuMTg0MjUtMTQuNTc5MDUtMTA0Ljg2NjEzLTczLjgwOTY2LTg4LjYwMjQtMTMyLjI4Mjk2LDE2LjI0ODUzLTU4LjQ4MzQ5LDgyLjI4ODU5LTk0LjA3NTEyLDE0Ny40ODAzOC03OS40OTU5Niw2NS4yMDcxMSwxNC41NzkwNSwxMDQuODg1MDUsNzMuODE2NTMsODguNjI4OTgsMTMyLjI5NjU5aC4wMDAxMloiLz4KICAgIDxwYXRoIGlkPSJwYXRoNTAiIGZpbGw9IiNmZmYiIGQ9Ik00ODkuNTA4NTUsMTgwLjAyNTM4YzIuNDIyOC0xNC41MjQ1LTkuOTA4MTQtMjIuMzMyNTUtMjYuNzY4OTUtMjcuNTQxMzRsNS40NjkzOC0xOS42NzUzMi0xMy4zNTQwMS0yLjk4NDcyLTUuMzI0ODcsMTkuMTU2OGMtMy41MTA2NC0uNzg0NTktNy4xMTYzNC0xLjUyNDc0LTEwLjY5OTE4LTIuMjU4MTFsNS4zNjI5NC0xOS4yODMwNy0xMy4zNDY0Ni0yLjk4NDcyLTUuNDczMjEsMTkuNjY4NDVjLTIuOTA1OS0uNTkzNTctNS43NTg1Mi0xLjE4MDI3LTguNTI3NDUtMS43OTc2OGwuMDE1MjEtLjA2MTQyLTE4LjQxNjU1LTQuMTI0MDktMy41NTI0MywxMi43OTE2N3M5LjkwODE0LDIuMDM2MzgsOS42OTg4NiwyLjE2MjY1YzUuNDA4NTUsMS4yMTA5OCw2LjM4NjAxLDQuNDIwNzcsNi4yMjI0Niw2Ljk2NTQ3bC02LjIzMDEyLDIyLjQxNDQ3Yy4zNzI3MSwuMDg1MjYsLjg1NTgxLC4yMDgwOSwxLjM4ODI0LC4zOTkxMi0uNDQ1MDMtLjA5ODg5LS45MjA0Ni0uMjA4MDktMS40MTExLS4zMTM4NmwtOC43MzI3OCwzMS4zOTkyNWMtLjY2MTg1LDEuNDczNjItMi4zMzkxMSwzLjY4Mzk2LTYuMTE5ODUsMi44NDQ5MiwuMTMzMTQsLjE3Mzk1LTkuNzA2NTItMi4xNzI4Ni05LjcwNjUyLTIuMTcyODZsLTYuNjI5NTMsMTMuNzA5MzEsMTcuMzc4MTYsMy44ODUyOGMzLjIzMjk5LC43MjY2MSw2LjQwMTMzLDEuNDg3MjYsOS41MjAxMSwyLjIwMzU3bC01LjUyNjQ4LDE5LjkwMDQ4LDEzLjMzODgsMi45ODQ3Miw1LjQ3MzIxLTE5LjY4ODk1YzMuNjQzNzcsLjg4NjkyLDcuMTgwOTksMS43MDU1NiwxMC42NDIxOSwyLjQ3NjUxbC01LjQ1NDE3LDE5LjU5NjgzLDEzLjM1NDAxLDIuOTg0NzIsNS41MjY0OC0xOS44NjI5YzIyLjc3MTUsMy44NjQ3OCwzOS44OTQ4OCwyLjMwNTg5LDQ3LjEwMjQ1LTE2LjE2NTMxLDUuODA3OTYtMTQuODcyNC0uMjg5MDItMjMuNDUxNC0xMi4yNzAxMi0yOS4wNDU2OCw4LjcyNTIzLTEuODA0NDUsMTUuMjk3NjYtNi45NTE4MywxNy4wNTEwNi0xNy41ODQyOGwuMDAwMjMsLjAwMDFabS0zMC41MTE2MiwzOC4zNzE1OWMtNC4xMjY3NiwxNC44NzI0LTMyLjA0ODIsNi44MzI0My00MS4xMDA1Myw0LjgxNjQ1bDcuMzMzMTctMjYuMzY0NTFjOS4wNTIzMywyLjAyNjE4LDM4LjA4MDU0LDYuMDM3NjMsMzMuNzY3MzcsMjEuNTQ3OTV2LjAwMDFabTQuMTMwNTktMzguNTg2NTVjLTMuNzY1NDIsMTMuNTI4NDktMjcuMDA0ODIsNi42NTUwNC0zNC41NDMzMiw0Ljk2OTk5bDYuNjQ4NDUtMjMuOTExOTRjNy41Mzg1LDEuNjg1MDUsMzEuODE2MTcsNC44MzAwOSwyNy44OTQ4NywxOC45NDE5NFoiLz4KICA8L2c+Cjwvc3ZnPg==;clipPath=inset(24.34% 35.33% 5.75% 35.67%);" parent="1" vertex="1">
                    <mxGeometry x="743.75" y="374.07" width="28.56" height="25.93" as="geometry"/>
                </mxCell>
                <mxCell id="32" value="" style="shape=image;imageAspect=0;aspect=fixed;verticalLabelPosition=bottom;verticalAlign=top;fontSize=25;image=data:image/svg+xml,PHN2ZyB4bWxucz0iaHR0cDovL3d3dy53My5vcmcvMjAwMC9zdmciIGlkPSJzdmc1NCIgdmVyc2lvbj0iMS4xIiB2aWV3Qm94PSIwIDAgODY2LjgwNTE4IDMyNS43MTYzNyIgaGVpZ2h0PSIzMjUuNzE2MzciIHdpZHRoPSI4NjYuODA1MTgiPgogIDxkZWZzIGlkPSJkZWZzNTgiLz4KICAKICA8ZyBpZD0iZzUyIj4KICAgIDxwYXRoIGlkPSJwYXRoNDgiIGZpbGw9IiNmNzkzMWEiIGQ9Ik01NTMuOTAxNzYsMjIxLjk4MjAzYy0xNi4yNTYwNyw1OC40NzY3My04Mi4yOTYxMyw5NC4wNjQ4MS0xNDcuNTA3MDcsNzkuNDgyMzMtNjUuMTg0MjUtMTQuNTc5MDUtMTA0Ljg2NjEzLTczLjgwOTY2LTg4LjYwMjQtMTMyLjI4Mjk2LDE2LjI0ODUzLTU4LjQ4MzQ5LDgyLjI4ODU5LTk0LjA3NTEyLDE0Ny40ODAzOC03OS40OTU5Niw2NS4yMDcxMSwxNC41NzkwNSwxMDQuODg1MDUsNzMuODE2NTMsODguNjI4OTgsMTMyLjI5NjU5aC4wMDAxMloiLz4KICAgIDxwYXRoIGlkPSJwYXRoNTAiIGZpbGw9IiNmZmYiIGQ9Ik00ODkuNTA4NTUsMTgwLjAyNTM4YzIuNDIyOC0xNC41MjQ1LTkuOTA4MTQtMjIuMzMyNTUtMjYuNzY4OTUtMjcuNTQxMzRsNS40NjkzOC0xOS42NzUzMi0xMy4zNTQwMS0yLjk4NDcyLTUuMzI0ODcsMTkuMTU2OGMtMy41MTA2NC0uNzg0NTktNy4xMTYzNC0xLjUyNDc0LTEwLjY5OTE4LTIuMjU4MTFsNS4zNjI5NC0xOS4yODMwNy0xMy4zNDY0Ni0yLjk4NDcyLTUuNDczMjEsMTkuNjY4NDVjLTIuOTA1OS0uNTkzNTctNS43NTg1Mi0xLjE4MDI3LTguNTI3NDUtMS43OTc2OGwuMDE1MjEtLjA2MTQyLTE4LjQxNjU1LTQuMTI0MDktMy41NTI0MywxMi43OTE2N3M5LjkwODE0LDIuMDM2MzgsOS42OTg4NiwyLjE2MjY1YzUuNDA4NTUsMS4yMTA5OCw2LjM4NjAxLDQuNDIwNzcsNi4yMjI0Niw2Ljk2NTQ3bC02LjIzMDEyLDIyLjQxNDQ3Yy4zNzI3MSwuMDg1MjYsLjg1NTgxLC4yMDgwOSwxLjM4ODI0LC4zOTkxMi0uNDQ1MDMtLjA5ODg5LS45MjA0Ni0uMjA4MDktMS40MTExLS4zMTM4NmwtOC43MzI3OCwzMS4zOTkyNWMtLjY2MTg1LDEuNDczNjItMi4zMzkxMSwzLjY4Mzk2LTYuMTE5ODUsMi44NDQ5MiwuMTMzMTQsLjE3Mzk1LTkuNzA2NTItMi4xNzI4Ni05LjcwNjUyLTIuMTcyODZsLTYuNjI5NTMsMTMuNzA5MzEsMTcuMzc4MTYsMy44ODUyOGMzLjIzMjk5LC43MjY2MSw2LjQwMTMzLDEuNDg3MjYsOS41MjAxMSwyLjIwMzU3bC01LjUyNjQ4LDE5LjkwMDQ4LDEzLjMzODgsMi45ODQ3Miw1LjQ3MzIxLTE5LjY4ODk1YzMuNjQzNzcsLjg4NjkyLDcuMTgwOTksMS43MDU1NiwxMC42NDIxOSwyLjQ3NjUxbC01LjQ1NDE3LDE5LjU5NjgzLDEzLjM1NDAxLDIuOTg0NzIsNS41MjY0OC0xOS44NjI5YzIyLjc3MTUsMy44NjQ3OCwzOS44OTQ4OCwyLjMwNTg5LDQ3LjEwMjQ1LTE2LjE2NTMxLDUuODA3OTYtMTQuODcyNC0uMjg5MDItMjMuNDUxNC0xMi4yNzAxMi0yOS4wNDU2OCw4LjcyNTIzLTEuODA0NDUsMTUuMjk3NjYtNi45NTE4MywxNy4wNTEwNi0xNy41ODQyOGwuMDAwMjMsLjAwMDFabS0zMC41MTE2MiwzOC4zNzE1OWMtNC4xMjY3NiwxNC44NzI0LTMyLjA0ODIsNi44MzI0My00MS4xMDA1Myw0LjgxNjQ1bDcuMzMzMTctMjYuMzY0NTFjOS4wNTIzMywyLjAyNjE4LDM4LjA4MDU0LDYuMDM3NjMsMzMuNzY3MzcsMjEuNTQ3OTV2LjAwMDFabTQuMTMwNTktMzguNTg2NTVjLTMuNzY1NDIsMTMuNTI4NDktMjcuMDA0ODIsNi42NTUwNC0zNC41NDMzMiw0Ljk2OTk5bDYuNjQ4NDUtMjMuOTExOTRjNy41Mzg1LDEuNjg1MDUsMzEuODE2MTcsNC44MzAwOSwyNy44OTQ4NywxOC45NDE5NFoiLz4KICA8L2c+Cjwvc3ZnPg==;clipPath=inset(24.34% 35.33% 5.75% 35.67%);" parent="1" vertex="1">
                    <mxGeometry x="730" y="408.75" width="28.56" height="25.93" as="geometry"/>
                </mxCell>
                <mxCell id="33" value="" style="shape=image;imageAspect=0;aspect=fixed;verticalLabelPosition=bottom;verticalAlign=top;fontSize=25;image=data:image/svg+xml,PHN2ZyB4bWxucz0iaHR0cDovL3d3dy53My5vcmcvMjAwMC9zdmciIGlkPSJzdmc1NCIgdmVyc2lvbj0iMS4xIiB2aWV3Qm94PSIwIDAgODY2LjgwNTE4IDMyNS43MTYzNyIgaGVpZ2h0PSIzMjUuNzE2MzciIHdpZHRoPSI4NjYuODA1MTgiPgogIDxkZWZzIGlkPSJkZWZzNTgiLz4KICAKICA8ZyBpZD0iZzUyIj4KICAgIDxwYXRoIGlkPSJwYXRoNDgiIGZpbGw9IiNmNzkzMWEiIGQ9Ik01NTMuOTAxNzYsMjIxLjk4MjAzYy0xNi4yNTYwNyw1OC40NzY3My04Mi4yOTYxMyw5NC4wNjQ4MS0xNDcuNTA3MDcsNzkuNDgyMzMtNjUuMTg0MjUtMTQuNTc5MDUtMTA0Ljg2NjEzLTczLjgwOTY2LTg4LjYwMjQtMTMyLjI4Mjk2LDE2LjI0ODUzLTU4LjQ4MzQ5LDgyLjI4ODU5LTk0LjA3NTEyLDE0Ny40ODAzOC03OS40OTU5Niw2NS4yMDcxMSwxNC41NzkwNSwxMDQuODg1MDUsNzMuODE2NTMsODguNjI4OTgsMTMyLjI5NjU5aC4wMDAxMloiLz4KICAgIDxwYXRoIGlkPSJwYXRoNTAiIGZpbGw9IiNmZmYiIGQ9Ik00ODkuNTA4NTUsMTgwLjAyNTM4YzIuNDIyOC0xNC41MjQ1LTkuOTA4MTQtMjIuMzMyNTUtMjYuNzY4OTUtMjcuNTQxMzRsNS40NjkzOC0xOS42NzUzMi0xMy4zNTQwMS0yLjk4NDcyLTUuMzI0ODcsMTkuMTU2OGMtMy41MTA2NC0uNzg0NTktNy4xMTYzNC0xLjUyNDc0LTEwLjY5OTE4LTIuMjU4MTFsNS4zNjI5NC0xOS4yODMwNy0xMy4zNDY0Ni0yLjk4NDcyLTUuNDczMjEsMTkuNjY4NDVjLTIuOTA1OS0uNTkzNTctNS43NTg1Mi0xLjE4MDI3LTguNTI3NDUtMS43OTc2OGwuMDE1MjEtLjA2MTQyLTE4LjQxNjU1LTQuMTI0MDktMy41NTI0MywxMi43OTE2N3M5LjkwODE0LDIuMDM2MzgsOS42OTg4NiwyLjE2MjY1YzUuNDA4NTUsMS4yMTA5OCw2LjM4NjAxLDQuNDIwNzcsNi4yMjI0Niw2Ljk2NTQ3bC02LjIzMDEyLDIyLjQxNDQ3Yy4zNzI3MSwuMDg1MjYsLjg1NTgxLC4yMDgwOSwxLjM4ODI0LC4zOTkxMi0uNDQ1MDMtLjA5ODg5LS45MjA0Ni0uMjA4MDktMS40MTExLS4zMTM4NmwtOC43MzI3OCwzMS4zOTkyNWMtLjY2MTg1LDEuNDczNjItMi4zMzkxMSwzLjY4Mzk2LTYuMTE5ODUsMi44NDQ5MiwuMTMzMTQsLjE3Mzk1LTkuNzA2NTItMi4xNzI4Ni05LjcwNjUyLTIuMTcyODZsLTYuNjI5NTMsMTMuNzA5MzEsMTcuMzc4MTYsMy44ODUyOGMzLjIzMjk5LC43MjY2MSw2LjQwMTMzLDEuNDg3MjYsOS41MjAxMSwyLjIwMzU3bC01LjUyNjQ4LDE5LjkwMDQ4LDEzLjMzODgsMi45ODQ3Miw1LjQ3MzIxLTE5LjY4ODk1YzMuNjQzNzcsLjg4NjkyLDcuMTgwOTksMS43MDU1NiwxMC42NDIxOSwyLjQ3NjUxbC01LjQ1NDE3LDE5LjU5NjgzLDEzLjM1NDAxLDIuOTg0NzIsNS41MjY0OC0xOS44NjI5YzIyLjc3MTUsMy44NjQ3OCwzOS44OTQ4OCwyLjMwNTg5LDQ3LjEwMjQ1LTE2LjE2NTMxLDUuODA3OTYtMTQuODcyNC0uMjg5MDItMjMuNDUxNC0xMi4yNzAxMi0yOS4wNDU2OCw4LjcyNTIzLTEuODA0NDUsMTUuMjk3NjYtNi45NTE4MywxNy4wNTEwNi0xNy41ODQyOGwuMDAwMjMsLjAwMDFabS0zMC41MTE2MiwzOC4zNzE1OWMtNC4xMjY3NiwxNC44NzI0LTMyLjA0ODIsNi44MzI0My00MS4xMDA1Myw0LjgxNjQ1bDcuMzMzMTctMjYuMzY0NTFjOS4wNTIzMywyLjAyNjE4LDM4LjA4MDU0LDYuMDM3NjMsMzMuNzY3MzcsMjEuNTQ3OTV2LjAwMDFabTQuMTMwNTktMzguNTg2NTVjLTMuNzY1NDIsMTMuNTI4NDktMjcuMDA0ODIsNi42NTUwNC0zNC41NDMzMiw0Ljk2OTk5bDYuNjQ4NDUtMjMuOTExOTRjNy41Mzg1LDEuNjg1MDUsMzEuODE2MTcsNC44MzAwOSwyNy44OTQ4NywxOC45NDE5NFoiLz4KICA8L2c+Cjwvc3ZnPg==;clipPath=inset(24.34% 35.33% 5.75% 35.67%);" parent="1" vertex="1">
                    <mxGeometry x="545" y="29.999999999999993" width="28.56" height="25.93" as="geometry"/>
                </mxCell>
                <mxCell id="34" value="" style="shape=image;imageAspect=0;aspect=fixed;verticalLabelPosition=bottom;verticalAlign=top;fontSize=25;image=data:image/svg+xml,PHN2ZyB4bWxucz0iaHR0cDovL3d3dy53My5vcmcvMjAwMC9zdmciIGlkPSJzdmc1NCIgdmVyc2lvbj0iMS4xIiB2aWV3Qm94PSIwIDAgODY2LjgwNTE4IDMyNS43MTYzNyIgaGVpZ2h0PSIzMjUuNzE2MzciIHdpZHRoPSI4NjYuODA1MTgiPgogIDxkZWZzIGlkPSJkZWZzNTgiLz4KICAKICA8ZyBpZD0iZzUyIj4KICAgIDxwYXRoIGlkPSJwYXRoNDgiIGZpbGw9IiNmNzkzMWEiIGQ9Ik01NTMuOTAxNzYsMjIxLjk4MjAzYy0xNi4yNTYwNyw1OC40NzY3My04Mi4yOTYxMyw5NC4wNjQ4MS0xNDcuNTA3MDcsNzkuNDgyMzMtNjUuMTg0MjUtMTQuNTc5MDUtMTA0Ljg2NjEzLTczLjgwOTY2LTg4LjYwMjQtMTMyLjI4Mjk2LDE2LjI0ODUzLTU4LjQ4MzQ5LDgyLjI4ODU5LTk0LjA3NTEyLDE0Ny40ODAzOC03OS40OTU5Niw2NS4yMDcxMSwxNC41NzkwNSwxMDQuODg1MDUsNzMuODE2NTMsODguNjI4OTgsMTMyLjI5NjU5aC4wMDAxMloiLz4KICAgIDxwYXRoIGlkPSJwYXRoNTAiIGZpbGw9IiNmZmYiIGQ9Ik00ODkuNTA4NTUsMTgwLjAyNTM4YzIuNDIyOC0xNC41MjQ1LTkuOTA4MTQtMjIuMzMyNTUtMjYuNzY4OTUtMjcuNTQxMzRsNS40NjkzOC0xOS42NzUzMi0xMy4zNTQwMS0yLjk4NDcyLTUuMzI0ODcsMTkuMTU2OGMtMy41MTA2NC0uNzg0NTktNy4xMTYzNC0xLjUyNDc0LTEwLjY5OTE4LTIuMjU4MTFsNS4zNjI5NC0xOS4yODMwNy0xMy4zNDY0Ni0yLjk4NDcyLTUuNDczMjEsMTkuNjY4NDVjLTIuOTA1OS0uNTkzNTctNS43NTg1Mi0xLjE4MDI3LTguNTI3NDUtMS43OTc2OGwuMDE1MjEtLjA2MTQyLTE4LjQxNjU1LTQuMTI0MDktMy41NTI0MywxMi43OTE2N3M5LjkwODE0LDIuMDM2MzgsOS42OTg4NiwyLjE2MjY1YzUuNDA4NTUsMS4yMTA5OCw2LjM4NjAxLDQuNDIwNzcsNi4yMjI0Niw2Ljk2NTQ3bC02LjIzMDEyLDIyLjQxNDQ3Yy4zNzI3MSwuMDg1MjYsLjg1NTgxLC4yMDgwOSwxLjM4ODI0LC4zOTkxMi0uNDQ1MDMtLjA5ODg5LS45MjA0Ni0uMjA4MDktMS40MTExLS4zMTM4NmwtOC43MzI3OCwzMS4zOTkyNWMtLjY2MTg1LDEuNDczNjItMi4zMzkxMSwzLjY4Mzk2LTYuMTE5ODUsMi44NDQ5MiwuMTMzMTQsLjE3Mzk1LTkuNzA2NTItMi4xNzI4Ni05LjcwNjUyLTIuMTcyODZsLTYuNjI5NTMsMTMuNzA5MzEsMTcuMzc4MTYsMy44ODUyOGMzLjIzMjk5LC43MjY2MSw2LjQwMTMzLDEuNDg3MjYsOS41MjAxMSwyLjIwMzU3bC01LjUyNjQ4LDE5LjkwMDQ4LDEzLjMzODgsMi45ODQ3Miw1LjQ3MzIxLTE5LjY4ODk1YzMuNjQzNzcsLjg4NjkyLDcuMTgwOTksMS43MDU1NiwxMC42NDIxOSwyLjQ3NjUxbC01LjQ1NDE3LDE5LjU5NjgzLDEzLjM1NDAxLDIuOTg0NzIsNS41MjY0OC0xOS44NjI5YzIyLjc3MTUsMy44NjQ3OCwzOS44OTQ4OCwyLjMwNTg5LDQ3LjEwMjQ1LTE2LjE2NTMxLDUuODA3OTYtMTQuODcyNC0uMjg5MDItMjMuNDUxNC0xMi4yNzAxMi0yOS4wNDU2OCw4LjcyNTIzLTEuODA0NDUsMTUuMjk3NjYtNi45NTE4MywxNy4wNTEwNi0xNy41ODQyOGwuMDAwMjMsLjAwMDFabS0zMC41MTE2MiwzOC4zNzE1OWMtNC4xMjY3NiwxNC44NzI0LTMyLjA0ODIsNi44MzI0My00MS4xMDA1Myw0LjgxNjQ1bDcuMzMzMTctMjYuMzY0NTFjOS4wNTIzMywyLjAyNjE4LDM4LjA4MDU0LDYuMDM3NjMsMzMuNzY3MzcsMjEuNTQ3OTV2LjAwMDFabTQuMTMwNTktMzguNTg2NTVjLTMuNzY1NDIsMTMuNTI4NDktMjcuMDA0ODIsNi42NTUwNC0zNC41NDMzMiw0Ljk2OTk5bDYuNjQ4NDUtMjMuOTExOTRjNy41Mzg1LDEuNjg1MDUsMzEuODE2MTcsNC44MzAwOSwyNy44OTQ4NywxOC45NDE5NFoiLz4KICA8L2c+Cjwvc3ZnPg==;clipPath=inset(24.34% 35.33% 5.75% 35.67%);" parent="1" vertex="1">
                    <mxGeometry x="505" y="29.999999999999993" width="28.56" height="25.93" as="geometry"/>
                </mxCell>
                <mxCell id="38" value="" style="shape=image;imageAspect=0;aspect=fixed;verticalLabelPosition=bottom;verticalAlign=top;fontSize=25;image=data:image/svg+xml,PHN2ZyB4bWxucz0iaHR0cDovL3d3dy53My5vcmcvMjAwMC9zdmciIGlkPSJzdmc1NCIgdmVyc2lvbj0iMS4xIiB2aWV3Qm94PSIwIDAgODY2LjgwNTE4IDMyNS43MTYzNyIgaGVpZ2h0PSIzMjUuNzE2MzciIHdpZHRoPSI4NjYuODA1MTgiPgogIDxkZWZzIGlkPSJkZWZzNTgiLz4KICAKICA8ZyBpZD0iZzUyIj4KICAgIDxwYXRoIGlkPSJwYXRoNDgiIGZpbGw9IiNmNzkzMWEiIGQ9Ik01NTMuOTAxNzYsMjIxLjk4MjAzYy0xNi4yNTYwNyw1OC40NzY3My04Mi4yOTYxMyw5NC4wNjQ4MS0xNDcuNTA3MDcsNzkuNDgyMzMtNjUuMTg0MjUtMTQuNTc5MDUtMTA0Ljg2NjEzLTczLjgwOTY2LTg4LjYwMjQtMTMyLjI4Mjk2LDE2LjI0ODUzLTU4LjQ4MzQ5LDgyLjI4ODU5LTk0LjA3NTEyLDE0Ny40ODAzOC03OS40OTU5Niw2NS4yMDcxMSwxNC41NzkwNSwxMDQuODg1MDUsNzMuODE2NTMsODguNjI4OTgsMTMyLjI5NjU5aC4wMDAxMloiLz4KICAgIDxwYXRoIGlkPSJwYXRoNTAiIGZpbGw9IiNmZmYiIGQ9Ik00ODkuNTA4NTUsMTgwLjAyNTM4YzIuNDIyOC0xNC41MjQ1LTkuOTA4MTQtMjIuMzMyNTUtMjYuNzY4OTUtMjcuNTQxMzRsNS40NjkzOC0xOS42NzUzMi0xMy4zNTQwMS0yLjk4NDcyLTUuMzI0ODcsMTkuMTU2OGMtMy41MTA2NC0uNzg0NTktNy4xMTYzNC0xLjUyNDc0LTEwLjY5OTE4LTIuMjU4MTFsNS4zNjI5NC0xOS4yODMwNy0xMy4zNDY0Ni0yLjk4NDcyLTUuNDczMjEsMTkuNjY4NDVjLTIuOTA1OS0uNTkzNTctNS43NTg1Mi0xLjE4MDI3LTguNTI3NDUtMS43OTc2OGwuMDE1MjEtLjA2MTQyLTE4LjQxNjU1LTQuMTI0MDktMy41NTI0MywxMi43OTE2N3M5LjkwODE0LDIuMDM2MzgsOS42OTg4NiwyLjE2MjY1YzUuNDA4NTUsMS4yMTA5OCw2LjM4NjAxLDQuNDIwNzcsNi4yMjI0Niw2Ljk2NTQ3bC02LjIzMDEyLDIyLjQxNDQ3Yy4zNzI3MSwuMDg1MjYsLjg1NTgxLC4yMDgwOSwxLjM4ODI0LC4zOTkxMi0uNDQ1MDMtLjA5ODg5LS45MjA0Ni0uMjA4MDktMS40MTExLS4zMTM4NmwtOC43MzI3OCwzMS4zOTkyNWMtLjY2MTg1LDEuNDczNjItMi4zMzkxMSwzLjY4Mzk2LTYuMTE5ODUsMi44NDQ5MiwuMTMzMTQsLjE3Mzk1LTkuNzA2NTItMi4xNzI4Ni05LjcwNjUyLTIuMTcyODZsLTYuNjI5NTMsMTMuNzA5MzEsMTcuMzc4MTYsMy44ODUyOGMzLjIzMjk5LC43MjY2MSw2LjQwMTMzLDEuNDg3MjYsOS41MjAxMSwyLjIwMzU3bC01LjUyNjQ4LDE5LjkwMDQ4LDEzLjMzODgsMi45ODQ3Miw1LjQ3MzIxLTE5LjY4ODk1YzMuNjQzNzcsLjg4NjkyLDcuMTgwOTksMS43MDU1NiwxMC42NDIxOSwyLjQ3NjUxbC01LjQ1NDE3LDE5LjU5NjgzLDEzLjM1NDAxLDIuOTg0NzIsNS41MjY0OC0xOS44NjI5YzIyLjc3MTUsMy44NjQ3OCwzOS44OTQ4OCwyLjMwNTg5LDQ3LjEwMjQ1LTE2LjE2NTMxLDUuODA3OTYtMTQuODcyNC0uMjg5MDItMjMuNDUxNC0xMi4yNzAxMi0yOS4wNDU2OCw4LjcyNTIzLTEuODA0NDUsMTUuMjk3NjYtNi45NTE4MywxNy4wNTEwNi0xNy41ODQyOGwuMDAwMjMsLjAwMDFabS0zMC41MTE2MiwzOC4zNzE1OWMtNC4xMjY3NiwxNC44NzI0LTMyLjA0ODIsNi44MzI0My00MS4xMDA1Myw0LjgxNjQ1bDcuMzMzMTctMjYuMzY0NTFjOS4wNTIzMywyLjAyNjE4LDM4LjA4MDU0LDYuMDM3NjMsMzMuNzY3MzcsMjEuNTQ3OTV2LjAwMDFabTQuMTMwNTktMzguNTg2NTVjLTMuNzY1NDIsMTMuNTI4NDktMjcuMDA0ODIsNi42NTUwNC0zNC41NDMzMiw0Ljk2OTk5bDYuNjQ4NDUtMjMuOTExOTRjNy41Mzg1LDEuNjg1MDUsMzEuODE2MTcsNC44MzAwOSwyNy44OTQ4NywxOC45NDE5NFoiLz4KICA8L2c+Cjwvc3ZnPg==;clipPath=inset(24.34% 35.33% 5.75% 35.67%);" vertex="1" parent="1">
                    <mxGeometry x="308.72" y="411.72" width="28.56" height="25.93" as="geometry"/>
                </mxCell>
                <mxCell id="39" value="" style="edgeStyle=none;orthogonalLoop=1;jettySize=auto;html=1;fontColor=#FF0000;" edge="1" parent="1">
                    <mxGeometry width="80" relative="1" as="geometry">
                        <mxPoint x="560" y="190" as="sourcePoint"/>
                        <mxPoint x="640" y="190" as="targetPoint"/>
                        <Array as="points"/>
                    </mxGeometry>
                </mxCell>
                <mxCell id="43" value="&lt;font&gt;+1&lt;br&gt;&lt;/font&gt;" style="text;strokeColor=none;align=center;fillColor=none;html=1;verticalAlign=middle;whiteSpace=wrap;rounded=0;fontSize=25;fontColor=#00FF00;" vertex="1" parent="1">
                    <mxGeometry x="291.44" y="160" width="60" height="30" as="geometry"/>
                </mxCell>
                <mxCell id="45" value="" style="shape=singleArrow;direction=west;whiteSpace=wrap;html=1;rotation=-150;" vertex="1" parent="1">
                    <mxGeometry x="321.44" y="140" width="30" height="20" as="geometry"/>
                </mxCell>
                <mxCell id="46" value="" style="verticalLabelPosition=bottom;sketch=0;aspect=fixed;html=1;verticalAlign=top;strokeColor=none;align=center;outlineConnect=0;shape=mxgraph.citrix.government;fontColor=#00FF00;fillColor=#FF0000;" vertex="1" parent="1">
                    <mxGeometry x="211" y="88" width="119" height="52" as="geometry"/>
                </mxCell>
            </root>
        </mxGraphModel>
    </diagram>
</mxfile>